<svg width="760" height="506" viewBox="0 0 760 506" fill="none" xmlns="http://www.w3.org/2000/svg">
<g clip-path="url(#clip0_3_1112)">
<rect width="760" height="506" fill="#EFEFEF"/>
<rect width="760" height="506" fill="#EFEFEF"/>
<rect width="63.6404" height="6" fill="#0B322C"/>
<rect x="63.3047" width="63.6404" height="6" fill="#0B322C"/>
<rect x="126.611" width="63.6404" height="6" fill="#FE7B3F"/>
<rect x="189.916" width="63.6404" height="6" fill="#2FBA78"/>
<rect x="253.223" width="63.6404" height="6" fill="#2FBA78"/>
<rect x="316.527" width="63.6404" height="6" fill="#2FBA78"/>
<rect x="379.832" width="63.6404" height="6" fill="#2FBA78"/>
<rect x="443.139" width="63.6404" height="6" fill="#2FBA78"/>
<rect x="506.443" width="63.6404" height="6" fill="#EFEFEF"/>
<rect x="569.748" width="63.6404" height="6" fill="#2453FF"/>
<rect x="633.055" width="63.6404" height="6" fill="#2453FF"/>
<rect x="696.359" width="63.6404" height="6" fill="#2453FF"/>
<g clip-path="url(#clip1_3_1112)">
<path d="M-31.3981 350.074C-99.8513 350.074 -148.094 301.505 -148.094 232.726V229.792C-148.094 160.687 -99.1993 112.118 -29.4423 112.118C4.78432 112.118 32.4915 124.831 53.6794 146.019L21.4087 177.964C7.71802 162.643 -9.23229 155.798 -28.7903 155.798C-71.1661 155.798 -100.829 186.439 -100.829 229.792V232.726C-100.829 276.406 -71.4921 306.721 -30.0942 306.721C2.82852 306.721 26.2982 285.533 27.602 255.87H-24.2268V218.384H72.2596C82.0386 297.268 39.6628 350.074 -31.3981 350.074ZM144.003 345.185C121.185 345.185 104.887 328.887 104.887 306.395V155.798C104.887 133.306 121.185 117.008 144.003 117.008H257.766V158.732H159.649C154.434 158.732 150.522 162.969 150.522 168.185V210.56H250.92V250.328H150.522V294.008C150.522 299.224 154.434 303.461 159.649 303.461H257.766V345.185H144.003ZM345.392 345.185C314.751 345.185 295.519 327.909 295.519 299.224V143.737H270.42V107.229H338.873V300.201C338.873 305.091 342.785 309.329 348 309.329H365.602V345.185H345.392ZM380.905 410.378V374.848H478.369C486.844 374.848 490.43 371.262 490.43 364.091C490.43 356.92 486.844 353.334 478.369 353.334H420.999C396.225 353.334 386.772 331.494 397.203 309.98L406.982 290.096C391.336 279.34 381.883 263.041 381.883 243.483V240.223C381.883 206.323 411.546 182.201 453.596 182.201C454.248 182.201 454.574 182.201 454.9 182.201L468.59 152.212H512.27L491.408 190.024C512.596 199.477 525.309 217.732 525.309 239.897V243.483C525.309 278.362 495.646 302.809 453.596 302.809C449.684 302.809 445.447 302.483 441.535 302.157L435.342 314.544C434.038 317.152 434.69 319.759 437.949 319.759H484.889C511.944 319.759 530.85 333.45 530.85 364.417C530.85 390.82 510.966 410.378 482.933 410.378H380.905ZM453.596 270.212C470.872 270.212 482.933 259.13 482.933 243.809V242.179C482.933 226.859 470.872 216.754 453.596 216.754C436.319 216.754 424.259 227.185 424.259 242.179V243.809C424.259 259.13 436.319 270.212 453.596 270.212ZM568.935 155.146V109.51H616.852V155.146H568.935ZM570.891 345.185V221.969H543.183V185.461H614.244V345.185H570.891ZM703.488 348.445C667.632 348.445 644.162 329.213 644.162 301.179C644.162 272.494 667.632 251.958 709.681 251.958C723.046 251.958 734.129 254.24 742.93 258.152V244.787C742.93 226.859 731.195 219.687 714.571 219.687C699.25 219.687 680.67 225.881 667.958 236.638L648.726 207.953C663.068 192.306 689.471 182.201 717.179 182.201C757.273 182.201 785.632 203.389 785.632 242.505V294.334C785.632 311.284 785.632 328.235 786.61 345.185H748.146V328.235C739.996 341.599 725.328 348.445 703.488 348.445ZM715.223 317.152C731.847 317.152 743.256 309.655 743.256 298.898C743.256 288.141 731.847 280.969 715.223 280.969C698.925 280.969 687.516 288.141 687.516 298.898C687.516 309.655 698.925 317.152 715.223 317.152Z" fill="#0B322C"/>
<path d="M160.26 91.36C161.47 91.8579 162.66 92.3965 163.827 92.9743H163.828L163.384 93.8698C164.247 94.2973 165.098 94.7471 165.936 95.2175L166.424 94.3454C167.564 94.9858 168.68 95.6641 169.77 96.3796L169.222 97.2155C170.026 97.7438 170.816 98.2928 171.591 98.861L172.182 98.0554C173.235 98.8279 174.261 99.6353 175.258 100.477V100.478L174.613 101.242C175.348 101.863 176.066 102.502 176.768 103.16L177.451 102.43C178.404 103.323 179.326 104.248 180.215 105.204V105.205L179.482 105.885C180.137 106.59 180.774 107.311 181.393 108.049L182.158 107.406C182.996 108.405 183.8 109.434 184.568 110.491H184.569L183.761 111.08C184.326 111.857 184.872 112.649 185.397 113.456L186.234 112.91C186.946 114.002 187.621 115.119 188.258 116.261V116.262L187.385 116.75C187.852 117.588 188.299 118.441 188.724 119.305L189.62 118.864C190.194 120.032 190.73 121.223 191.225 122.435V122.436L190.299 122.813C190.661 123.701 191.001 124.601 191.318 125.511L192.262 125.182C192.69 126.41 193.076 127.658 193.421 128.923H193.422L192.457 129.185C192.709 130.11 192.939 131.045 193.144 131.988L194.12 131.775V131.774C194.396 133.044 194.628 134.329 194.817 135.629L193.83 135.773C193.968 136.72 194.083 137.675 194.173 138.637L195.167 138.545C195.288 139.835 195.366 141.137 195.399 142.451H195.4L194.4 142.476C194.413 142.957 194.419 143.44 194.419 143.924C194.419 144.407 194.413 144.89 194.4 145.371L195.399 145.395C195.366 146.709 195.288 148.011 195.167 149.301L194.173 149.209C194.083 150.171 193.968 151.127 193.83 152.074L194.817 152.217C194.628 153.517 194.396 154.802 194.12 156.071L193.144 155.859C192.939 156.802 192.709 157.736 192.457 158.661L193.421 158.924C193.076 160.188 192.69 161.435 192.262 162.663L191.318 162.335C191.001 163.245 190.661 164.145 190.299 165.033L191.224 165.41C190.729 166.622 190.194 167.813 189.62 168.981L188.724 168.542C188.299 169.406 187.852 170.259 187.385 171.097L188.258 171.584C187.621 172.726 186.946 173.843 186.234 174.935L185.397 174.391C184.872 175.198 184.326 175.99 183.761 176.767L184.568 177.354C183.8 178.411 182.996 179.44 182.158 180.439L181.393 179.799C180.774 180.536 180.137 181.257 179.482 181.961L180.215 182.642C179.326 183.598 178.403 184.522 177.451 185.415L176.768 184.686C176.066 185.344 175.348 185.984 174.613 186.605L175.257 187.368C174.26 188.21 173.235 189.018 172.182 189.791L171.591 188.985C170.816 189.553 170.026 190.102 169.222 190.631L169.77 191.466C168.68 192.181 167.564 192.86 166.424 193.501L165.936 192.63C165.098 193.1 164.247 193.549 163.384 193.976L163.827 194.872C162.66 195.45 161.47 195.988 160.26 196.486L159.881 195.562C158.994 195.927 158.095 196.269 157.186 196.589L157.516 197.531C156.289 197.962 155.043 198.352 153.779 198.699L153.515 197.736C152.591 197.99 151.657 198.221 150.715 198.427L150.928 199.403C149.659 199.681 148.374 199.915 147.075 200.106L146.931 199.119C145.984 199.258 145.028 199.374 144.066 199.465L144.16 200.459C142.87 200.581 141.568 200.659 140.254 200.693L140.229 199.695C139.748 199.707 139.266 199.713 138.782 199.713C138.298 199.713 137.816 199.707 137.335 199.695L137.31 200.693C135.996 200.659 134.693 200.581 133.403 200.459L133.497 199.465C132.535 199.374 131.58 199.258 130.633 199.119L130.487 200.106C129.188 199.915 127.904 199.681 126.635 199.403L126.85 198.427C125.907 198.221 124.973 197.99 124.049 197.736L123.784 198.699C122.52 198.352 121.274 197.962 120.047 197.531L120.378 196.589C119.469 196.269 118.57 195.927 117.683 195.562L117.303 196.486C116.092 195.988 114.902 195.45 113.735 194.872L114.18 193.976C113.317 193.549 112.466 193.1 111.629 192.63L111.139 193.501C109.998 192.86 108.883 192.181 107.793 191.466L108.343 190.631C107.538 190.102 106.748 189.553 105.973 188.985L105.381 189.791C104.328 189.018 103.302 188.21 102.306 187.368L102.951 186.605C102.216 185.984 101.498 185.344 100.796 184.686L100.111 185.415C99.1592 184.522 98.2375 183.597 97.3486 182.641L98.0811 181.961C97.4263 181.257 96.789 180.536 96.1709 179.799L95.4043 180.439C94.5665 179.44 93.7627 178.411 92.9941 177.354L93.8027 176.767C93.2375 175.99 92.6914 175.198 92.166 174.391L91.3281 174.935C90.6169 173.843 89.9412 172.726 89.3047 171.584H89.3057L90.1787 171.097C89.7113 170.259 89.2646 169.406 88.8398 168.542L87.9424 168.981C87.3685 167.813 86.8333 166.622 86.3389 165.41L87.2646 165.033C86.9023 164.145 86.5624 163.245 86.2451 162.335L85.3008 162.663C84.8729 161.435 84.4861 160.188 84.1416 158.924L85.1064 158.661C84.8546 157.736 84.6259 156.802 84.4209 155.859L83.4434 156.071H83.4424C83.1666 154.802 82.9347 153.517 82.7451 152.217L83.7334 152.074C83.5951 151.127 83.4808 150.171 83.3906 149.209L82.3955 149.301C82.2746 148.011 82.1964 146.709 82.1631 145.395L83.1631 145.371C83.157 145.13 83.1525 144.889 83.1494 144.648L83.1445 143.924C83.1445 143.44 83.1509 142.957 83.1631 142.476L82.1631 142.451C82.1964 141.137 82.2746 139.835 82.3955 138.545L83.3906 138.637C83.4808 137.675 83.5952 136.72 83.7334 135.773L82.7451 135.629C82.9348 134.329 83.1665 133.043 83.4424 131.774L83.4434 131.775L84.4209 131.988C84.6259 131.045 84.8545 130.11 85.1064 129.185L84.1416 128.923C84.4862 127.658 84.8728 126.41 85.3008 125.182L86.2451 125.511C86.5624 124.601 86.9023 123.701 87.2646 122.813L86.3389 122.436L86.3379 122.435C86.8324 121.223 87.3684 120.032 87.9424 118.864L88.8398 119.305C89.2646 118.441 89.7113 117.588 90.1787 116.75L89.3057 116.262L89.3047 116.261C89.9412 115.119 90.6169 114.002 91.3281 112.91L92.166 113.456C92.6915 112.649 93.2374 111.857 93.8027 111.08L92.9941 110.491C93.7627 109.434 94.5665 108.405 95.4043 107.406L96.1709 108.049C96.7891 107.311 97.4262 106.59 98.0811 105.885L97.3486 105.205C98.2377 104.249 99.159 103.323 100.111 102.43L100.796 103.16C101.497 102.502 102.216 101.863 102.951 101.242L102.306 100.478L102.305 100.477C103.301 99.6353 104.327 98.8279 105.381 98.0554L105.973 98.861C106.748 98.2927 107.538 97.7438 108.343 97.2155L107.793 96.3796C108.883 95.6641 109.999 94.9858 111.139 94.3454L111.629 95.2175C112.466 94.7472 113.317 94.2972 114.18 93.8698L113.735 92.9743C114.72 92.4868 115.721 92.0272 116.736 91.5964L117.303 91.36L117.683 92.2849C118.57 91.92 119.469 91.577 120.378 91.2575L120.047 90.3141C121.274 89.8831 122.52 89.4933 123.784 89.1462L124.049 90.11C124.973 89.8563 125.907 89.6261 126.85 89.4196L126.635 88.4431L126.634 88.4421C127.903 88.164 129.188 87.9301 130.487 87.739L130.633 88.7272C131.58 88.5879 132.535 88.4724 133.497 88.3815L133.403 87.3864C134.693 87.2646 135.996 87.1856 137.31 87.152L137.335 88.152C137.816 88.1397 138.298 88.1335 138.782 88.1335C139.266 88.1335 139.748 88.1397 140.229 88.152L140.253 87.152C141.567 87.1856 142.87 87.2645 144.16 87.3864L144.066 88.3815C145.028 88.4724 145.984 88.5879 146.931 88.7272L147.075 87.739C148.374 87.9301 149.66 88.164 150.929 88.4421V88.4431L150.715 89.4196C151.657 89.6261 152.591 89.8563 153.515 90.11L153.779 89.1462C155.043 89.4932 156.289 89.8832 157.516 90.3141H157.517L157.186 91.2575C158.095 91.577 158.994 91.92 159.881 92.2849L160.26 91.36Z" stroke="#30BA78" stroke-width="2" stroke-dasharray="3 4"/>
<path d="M353.997 280.6C355.326 280.644 356.639 280.747 357.936 280.907L357.813 281.897C358.777 282.016 359.73 282.167 360.673 282.348L360.861 281.37C362.163 281.621 363.444 281.927 364.702 282.291L364.426 283.251C365.356 283.519 366.274 283.818 367.177 284.147L367.518 283.209C368.761 283.661 369.976 284.17 371.164 284.729L370.74 285.63C371.615 286.042 372.475 286.484 373.316 286.952L373.801 286.08C374.954 286.721 376.076 287.411 377.163 288.15L376.602 288.977C377.401 289.521 378.181 290.091 378.94 290.686L379.556 289.899C380.593 290.712 381.592 291.572 382.552 292.473L381.87 293.2C382.574 293.861 383.255 294.545 383.913 295.252L384.643 294.572C385.54 295.535 386.395 296.538 387.204 297.579L386.416 298.192C387.008 298.954 387.575 299.735 388.116 300.537L388.944 299.977C389.679 301.066 390.365 302.192 391.003 303.347L390.13 303.83C390.595 304.673 391.033 305.534 391.442 306.411L392.346 305.989C392.901 307.178 393.405 308.395 393.854 309.639L392.916 309.979C393.243 310.883 393.54 311.801 393.807 312.732L394.766 312.457C395.126 313.715 395.431 314.997 395.68 316.299L394.701 316.487C394.881 317.43 395.032 318.384 395.149 319.347L396.14 319.226C396.298 320.522 396.4 321.835 396.443 323.164L395.447 323.197C395.463 323.679 395.472 324.162 395.472 324.648C395.472 325.134 395.463 325.618 395.447 326.1L396.443 326.132C396.4 327.461 396.298 328.774 396.14 330.07L395.149 329.95C395.032 330.913 394.881 331.867 394.701 332.809L395.68 332.997C395.431 334.299 395.126 335.581 394.766 336.839L393.807 336.565C393.54 337.496 393.243 338.414 392.916 339.318L393.854 339.657C393.405 340.901 392.901 342.118 392.346 343.307L391.442 342.886C391.033 343.763 390.595 344.624 390.13 345.467L391.003 345.949C390.365 347.105 389.679 348.23 388.944 349.319L388.116 348.76C387.575 349.562 387.008 350.343 386.416 351.105L387.204 351.717C386.395 352.758 385.54 353.76 384.643 354.723L383.913 354.046C383.255 354.752 382.574 355.437 381.87 356.097L382.552 356.823C381.592 357.724 380.593 358.584 379.556 359.397L378.94 358.611C378.181 359.206 377.401 359.776 376.602 360.32L377.163 361.146C376.076 361.885 374.954 362.575 373.801 363.216L373.316 362.345C372.475 362.813 371.615 363.255 370.74 363.667L371.164 364.567C369.976 365.126 368.761 365.635 367.518 366.088L367.177 365.15C366.274 365.479 365.356 365.778 364.426 366.047L364.702 367.005C363.444 367.369 362.163 367.675 360.861 367.926L360.673 366.949C359.73 367.131 358.777 367.281 357.813 367.4L357.936 368.389C356.639 368.549 355.326 368.652 353.997 368.696L353.965 367.7C353.483 367.716 352.999 367.724 352.514 367.724C352.028 367.724 351.544 367.716 351.062 367.7L351.029 368.696C349.701 368.652 348.388 368.549 347.092 368.389L347.214 367.4C346.251 367.281 345.298 367.13 344.355 366.949L344.166 367.926C342.864 367.675 341.583 367.369 340.325 367.005L340.603 366.047C339.672 365.778 338.755 365.479 337.852 365.15L337.509 366.088C336.266 365.635 335.051 365.127 333.863 364.568L334.288 363.667C333.413 363.255 332.554 362.813 331.712 362.345L331.227 363.216C330.073 362.575 328.95 361.886 327.863 361.146L328.426 360.32C327.627 359.776 326.847 359.206 326.088 358.611L325.471 359.397C324.433 358.584 323.434 357.724 322.475 356.823L323.158 356.097C322.454 355.436 321.772 354.752 321.114 354.046L320.384 354.724C319.487 353.761 318.632 352.759 317.823 351.718L318.611 351.105C318.019 350.344 317.453 349.562 316.912 348.76L316.083 349.319C315.348 348.23 314.662 347.105 314.024 345.949L314.897 345.467C314.432 344.624 313.994 343.763 313.585 342.886L312.682 343.307C312.127 342.118 311.621 340.901 311.172 339.657L312.111 339.318C311.785 338.414 311.488 337.496 311.222 336.565L310.262 336.839C309.901 335.581 309.596 334.299 309.347 332.997L310.326 332.809C310.146 331.867 309.997 330.913 309.879 329.95L308.888 330.07C308.729 328.774 308.628 327.461 308.584 326.132L309.58 326.1C309.564 325.618 309.557 325.134 309.557 324.648C309.557 324.162 309.564 323.679 309.58 323.197L308.584 323.164C308.628 321.835 308.729 320.522 308.888 319.226L309.879 319.347C309.997 318.384 310.146 317.43 310.326 316.487L309.347 316.299C309.596 314.997 309.901 313.715 310.262 312.457L311.222 312.732C311.488 311.801 311.785 310.883 312.111 309.979L311.172 309.639C311.621 308.395 312.127 307.178 312.682 305.989L313.585 306.411C313.994 305.534 314.432 304.673 314.897 303.83L314.024 303.347C314.656 302.202 315.336 301.086 316.063 300.005L316.083 299.977L316.912 300.537C317.453 299.736 318.019 298.954 318.611 298.192L317.823 297.578C318.632 296.537 319.488 295.535 320.385 294.572L321.114 295.252C321.772 294.545 322.454 293.861 323.158 293.2L322.475 292.473C323.434 291.572 324.433 290.712 325.471 289.899L326.088 290.686C326.847 290.091 327.627 289.521 328.426 288.977L327.863 288.15C328.95 287.411 330.073 286.721 331.227 286.08L331.712 286.952C332.554 286.484 333.413 286.042 334.288 285.63L333.863 284.728C335.051 284.169 336.266 283.661 337.509 283.209L337.852 284.147C338.755 283.818 339.672 283.519 340.603 283.251L340.325 282.291C341.583 281.927 342.864 281.621 344.166 281.37L344.355 282.348C345.298 282.167 346.251 282.016 347.214 281.897L347.092 280.907C348.388 280.747 349.701 280.644 351.029 280.6L351.062 281.597C351.544 281.581 352.028 281.573 352.514 281.573C352.999 281.573 353.483 281.581 353.965 281.597L353.997 280.6Z" stroke="#30BA78" stroke-width="2" stroke-dasharray="3 4"/>
<path d="M394.815 345.876C396.144 345.92 397.458 346.023 398.754 346.183L398.632 347.173C399.595 347.292 400.549 347.442 401.491 347.624L401.68 346.646C402.981 346.896 404.263 347.203 405.521 347.566L405.244 348.526C406.174 348.795 407.092 349.094 407.995 349.423L408.336 348.484C409.579 348.937 410.795 349.446 411.982 350.005L411.559 350.906C412.434 351.318 413.293 351.759 414.135 352.228L414.619 351.356C415.772 351.997 416.895 352.687 417.981 353.426L417.42 354.253C418.219 354.797 418.999 355.367 419.759 355.962L420.374 355.175C421.412 355.988 422.41 356.848 423.37 357.749L422.688 358.476C423.392 359.136 424.073 359.821 424.731 360.527L425.461 359.848C426.358 360.811 427.213 361.814 428.022 362.855L427.234 363.468C427.826 364.229 428.394 365.011 428.935 365.813L429.763 365.253C430.498 366.342 431.184 367.467 431.821 368.623L430.948 369.106C431.413 369.949 431.852 370.81 432.261 371.687L433.164 371.265C433.719 372.454 434.224 373.671 434.673 374.915L433.734 375.255C434.061 376.159 434.358 377.077 434.625 378.008L435.584 377.732C435.945 378.991 436.249 380.273 436.498 381.575L435.52 381.763C435.7 382.705 435.85 383.66 435.968 384.623L436.958 384.502C437.117 385.798 437.218 387.111 437.262 388.44L436.266 388.473C436.282 388.954 436.29 389.438 436.29 389.924C436.29 390.41 436.282 390.894 436.266 391.376L437.262 391.408C437.218 392.737 437.117 394.05 436.958 395.346L435.968 395.226C435.85 396.189 435.7 397.142 435.52 398.085L436.498 398.273C436.249 399.575 435.945 400.857 435.584 402.115L434.625 401.841C434.358 402.772 434.061 403.69 433.734 404.594L434.673 404.933C434.224 406.177 433.719 407.394 433.164 408.583L432.261 408.162C431.852 409.039 431.413 409.9 430.948 410.743L431.821 411.225C431.184 412.38 430.498 413.505 429.763 414.595L428.935 414.036C428.394 414.837 427.826 415.619 427.234 416.381L428.022 416.993C427.214 418.034 426.358 419.036 425.461 419.999L424.731 419.321C424.073 420.028 423.392 420.712 422.688 421.373L423.37 422.099C422.41 423 421.412 423.86 420.374 424.673L419.759 423.887C418.999 424.482 418.219 425.052 417.42 425.596L417.981 426.422C416.895 427.161 415.772 427.851 414.619 428.492L414.135 427.621C413.293 428.089 412.434 428.531 411.559 428.942L411.982 429.843C410.795 430.402 409.579 430.911 408.336 431.363L407.995 430.426C407.092 430.755 406.174 431.054 405.244 431.322L405.521 432.281C404.263 432.645 402.981 432.951 401.68 433.202L401.491 432.225C400.549 432.406 399.595 432.557 398.632 432.676L398.754 433.665C397.458 433.825 396.144 433.928 394.815 433.972L394.783 432.976C394.302 432.992 393.818 433 393.332 433C392.846 433 392.362 432.992 391.881 432.976L391.848 433.972C390.519 433.928 389.206 433.825 387.91 433.665L388.032 432.676C387.069 432.557 386.116 432.406 385.174 432.225L384.984 433.202C383.683 432.951 382.402 432.645 381.144 432.281L381.421 431.322C380.491 431.054 379.573 430.755 378.67 430.426L378.327 431.363C377.085 430.911 375.869 430.403 374.682 429.844L375.106 428.942C374.231 428.531 373.372 428.089 372.53 427.621L372.045 428.492C370.891 427.851 369.769 427.161 368.682 426.422L369.244 425.596C368.445 425.052 367.666 424.482 366.906 423.887L366.289 424.673C365.252 423.86 364.253 423 363.293 422.099L363.977 421.373C363.273 420.712 362.591 420.028 361.933 419.321L361.202 420C360.305 419.037 359.45 418.035 358.642 416.994L359.43 416.381C358.838 415.619 358.271 414.837 357.73 414.036L356.901 414.595C356.166 413.505 355.48 412.38 354.843 411.225L355.716 410.743C355.251 409.9 354.813 409.039 354.403 408.162L353.5 408.583C352.945 407.394 352.44 406.177 351.99 404.933L352.93 404.594C352.603 403.69 352.307 402.772 352.04 401.841L351.08 402.115C350.719 400.857 350.414 399.575 350.165 398.273L351.145 398.085C350.964 397.143 350.815 396.189 350.697 395.226L349.706 395.346C349.548 394.05 349.446 392.737 349.402 391.408L350.398 391.376C350.383 390.894 350.375 390.41 350.375 389.924C350.375 389.438 350.383 388.954 350.398 388.473L349.402 388.44C349.446 387.111 349.547 385.798 349.706 384.502L350.697 384.623C350.815 383.66 350.964 382.705 351.145 381.763L350.165 381.575C350.414 380.273 350.719 378.991 351.08 377.732L352.04 378.008C352.307 377.077 352.603 376.159 352.93 375.255L351.99 374.915C352.44 373.671 352.945 372.454 353.5 371.265L354.403 371.687C354.813 370.81 355.251 369.949 355.716 369.106L354.843 368.623C355.475 367.477 356.154 366.362 356.882 365.281L356.901 365.253L357.73 365.813C358.271 365.011 358.838 364.229 359.43 363.468L358.642 362.854C359.451 361.813 360.306 360.811 361.203 359.848L361.933 360.527C362.591 359.821 363.273 359.137 363.977 358.476L363.293 357.749C364.253 356.848 365.252 355.988 366.289 355.175L366.906 355.962C367.666 355.367 368.445 354.797 369.244 354.253L368.682 353.426C369.768 352.686 370.892 351.997 372.045 351.356L372.53 352.228C373.372 351.759 374.231 351.318 375.106 350.906L374.682 350.004C375.869 349.445 377.085 348.937 378.327 348.484L378.67 349.423C379.573 349.094 380.491 348.795 381.421 348.526L381.144 347.566C382.402 347.203 383.683 346.896 384.984 346.646L385.174 347.624C386.116 347.442 387.069 347.292 388.032 347.173L387.91 346.183C389.206 346.023 390.519 345.92 391.848 345.876L391.881 346.873C392.362 346.857 392.846 346.849 393.332 346.849C393.818 346.849 394.302 346.857 394.783 346.873L394.815 345.876Z" stroke="#30BA78" stroke-width="2" stroke-dasharray="3 4"/>
<path d="M574.808 160.863C576.136 160.907 577.45 161.01 578.746 161.17L578.624 162.16C579.587 162.279 580.541 162.429 581.483 162.611L581.672 161.633C582.973 161.883 584.255 162.19 585.513 162.553L585.236 163.513C586.167 163.782 587.084 164.081 587.987 164.41L588.328 163.471C589.571 163.924 590.787 164.433 591.975 164.992L591.551 165.893C592.426 166.305 593.285 166.746 594.127 167.215L594.611 166.343C595.765 166.984 596.887 167.674 597.974 168.413L597.412 169.24C598.211 169.784 598.992 170.354 599.751 170.949L600.366 170.162C601.404 170.975 602.402 171.835 603.362 172.736L602.681 173.463C603.384 174.123 604.066 174.808 604.724 175.514L605.453 174.835C606.35 175.798 607.206 176.801 608.015 177.842L607.227 178.455C607.818 179.216 608.386 179.998 608.927 180.8L609.755 180.24C610.49 181.329 611.176 182.454 611.813 183.61L610.94 184.093C611.406 184.936 611.844 185.797 612.253 186.674L613.156 186.252C613.711 187.441 614.216 188.658 614.665 189.902L613.727 190.242C614.053 191.146 614.35 192.064 614.617 192.995L615.576 192.72C615.937 193.978 616.241 195.26 616.49 196.562L615.512 196.75C615.692 197.692 615.842 198.647 615.96 199.61L616.95 199.489C617.109 200.785 617.21 202.098 617.254 203.427L616.258 203.46C616.274 203.941 616.282 204.425 616.282 204.911C616.282 205.397 616.274 205.881 616.258 206.363L617.254 206.395C617.21 207.724 617.109 209.037 616.95 210.333L615.96 210.213C615.842 211.176 615.692 212.13 615.512 213.072L616.49 213.26C616.241 214.562 615.937 215.844 615.576 217.102L614.617 216.828C614.35 217.759 614.053 218.677 613.727 219.581L614.665 219.92C614.216 221.164 613.711 222.381 613.156 223.57L612.253 223.149C611.844 224.026 611.406 224.887 610.94 225.73L611.813 226.212C611.176 227.368 610.49 228.493 609.755 229.582L608.927 229.023C608.386 229.824 607.819 230.606 607.227 231.368L608.015 231.98C607.206 233.021 606.35 234.023 605.453 234.986L604.724 234.308C604.066 235.015 603.384 235.699 602.681 236.36L603.362 237.086C602.402 237.987 601.404 238.847 600.366 239.66L599.751 238.874C598.992 239.469 598.211 240.039 597.412 240.583L597.974 241.409C596.887 242.148 595.765 242.838 594.611 243.479L594.127 242.608C593.285 243.076 592.426 243.518 591.551 243.929L591.975 244.83C590.787 245.389 589.571 245.898 588.328 246.35L587.987 245.413C587.084 245.742 586.167 246.041 585.236 246.309L585.513 247.268C584.255 247.632 582.973 247.938 581.672 248.189L581.483 247.212C580.541 247.393 579.587 247.544 578.624 247.663L578.746 248.652C577.45 248.812 576.136 248.915 574.808 248.959L574.775 247.963C574.294 247.979 573.81 247.987 573.324 247.987C572.839 247.987 572.355 247.979 571.873 247.963L571.84 248.959C570.511 248.915 569.198 248.812 567.902 248.652L568.024 247.663C567.061 247.544 566.108 247.393 565.166 247.212L564.977 248.189C563.675 247.938 562.394 247.632 561.136 247.268L561.413 246.309C560.483 246.041 559.565 245.742 558.662 245.413L558.319 246.35C557.077 245.898 555.861 245.39 554.674 244.831L555.099 243.929C554.223 243.518 553.364 243.076 552.522 242.608L552.037 243.479C550.884 242.838 549.761 242.148 548.674 241.409L549.236 240.583C548.437 240.039 547.658 239.469 546.898 238.874L546.281 239.66C545.244 238.847 544.245 237.987 543.285 237.086L543.969 236.36C543.265 235.699 542.583 235.015 541.925 234.308L541.194 234.987C540.297 234.024 539.443 233.022 538.634 231.981L539.422 231.368C538.83 230.606 538.263 229.824 537.723 229.023L536.894 229.582C536.158 228.493 535.473 227.367 534.835 226.212L535.708 225.73C535.243 224.887 534.805 224.026 534.396 223.149L533.492 223.57C532.937 222.381 532.432 221.164 531.982 219.92L532.922 219.581C532.595 218.677 532.299 217.759 532.032 216.828L531.072 217.102C530.712 215.844 530.406 214.562 530.157 213.26L531.137 213.072C530.957 212.13 530.807 211.176 530.689 210.213L529.698 210.333C529.54 209.037 529.438 207.724 529.395 206.395L530.391 206.363C530.375 205.881 530.367 205.397 530.367 204.911C530.367 204.425 530.375 203.941 530.391 203.46L529.395 203.427C529.438 202.098 529.54 200.785 529.698 199.489L530.689 199.61C530.807 198.647 530.956 197.692 531.137 196.75L530.157 196.562C530.406 195.26 530.712 193.978 531.072 192.72L532.032 192.995C532.299 192.064 532.595 191.146 532.922 190.242L531.982 189.902C532.432 188.658 532.937 187.441 533.492 186.252L534.396 186.674C534.805 185.797 535.243 184.936 535.708 184.093L534.835 183.61C535.467 182.464 536.146 181.349 536.874 180.268L536.894 180.24L537.723 180.8C538.263 179.998 538.83 179.216 539.422 178.455L538.634 177.841C539.443 176.8 540.298 175.798 541.195 174.835L541.925 175.514C542.583 174.808 543.265 174.124 543.969 173.463L543.285 172.736C544.245 171.835 545.244 170.975 546.281 170.162L546.898 170.949C547.658 170.354 548.437 169.784 549.236 169.24L548.674 168.413C549.761 167.673 550.884 166.984 552.037 166.343L552.522 167.215C553.364 166.746 554.223 166.305 555.099 165.893L554.674 164.991C555.861 164.432 557.077 163.924 558.319 163.471L558.662 164.41C559.565 164.081 560.483 163.782 561.413 163.513L561.136 162.553C562.394 162.19 563.675 161.884 564.977 161.633L565.166 162.611C566.108 162.43 567.061 162.279 568.024 162.16L567.902 161.17C569.198 161.01 570.512 160.907 571.84 160.863L571.873 161.86C572.355 161.844 572.839 161.836 573.324 161.836C573.81 161.836 574.294 161.844 574.775 161.86L574.808 160.863Z" stroke="#30BA78" stroke-width="2" stroke-dasharray="3 4"/>
<path d="M666.808 173.863C668.136 173.907 669.45 174.01 670.746 174.17L670.624 175.16C671.587 175.279 672.541 175.429 673.483 175.611L673.672 174.633C674.973 174.884 676.255 175.19 677.513 175.554L677.236 176.513C678.167 176.782 679.084 177.081 679.987 177.41L680.328 176.471C681.571 176.924 682.787 177.433 683.975 177.992L683.551 178.893C684.426 179.305 685.285 179.747 686.127 180.215L686.611 179.343C687.765 179.984 688.887 180.674 689.974 181.413L689.412 182.24C690.211 182.784 690.992 183.354 691.751 183.949L692.366 183.162C693.404 183.975 694.402 184.835 695.362 185.736L694.681 186.463C695.384 187.123 696.066 187.808 696.724 188.514L697.453 187.835C698.35 188.798 699.206 189.801 700.015 190.842L699.227 191.455C699.818 192.216 700.386 192.998 700.927 193.8L701.755 193.24C702.49 194.329 703.176 195.454 703.813 196.61L702.94 197.093C703.406 197.936 703.844 198.797 704.253 199.674L705.156 199.252C705.711 200.441 706.216 201.658 706.665 202.902L705.727 203.242C706.053 204.146 706.35 205.064 706.617 205.995L707.576 205.72C707.937 206.978 708.241 208.26 708.49 209.562L707.512 209.75C707.692 210.693 707.842 211.647 707.96 212.61L708.95 212.489C709.109 213.785 709.21 215.098 709.254 216.427L708.258 216.46C708.274 216.941 708.282 217.425 708.282 217.911C708.282 218.397 708.274 218.881 708.258 219.363L709.254 219.395C709.21 220.724 709.109 222.037 708.95 223.333L707.96 223.213C707.842 224.176 707.692 225.13 707.512 226.072L708.49 226.26C708.241 227.562 707.937 228.844 707.576 230.102L706.617 229.828C706.35 230.759 706.053 231.677 705.727 232.581L706.665 232.92C706.216 234.164 705.711 235.381 705.156 236.57L704.253 236.149C703.844 237.026 703.406 237.887 702.94 238.73L703.813 239.212C703.176 240.368 702.49 241.493 701.755 242.582L700.927 242.023C700.386 242.825 699.819 243.606 699.227 244.368L700.015 244.98C699.206 246.021 698.35 247.023 697.453 247.986L696.724 247.308C696.066 248.015 695.384 248.699 694.681 249.36L695.362 250.086C694.402 250.987 693.404 251.847 692.366 252.66L691.751 251.874C690.992 252.469 690.211 253.039 689.412 253.583L689.974 254.409C688.887 255.148 687.765 255.838 686.611 256.479L686.127 255.608C685.285 256.076 684.426 256.518 683.551 256.93L683.975 257.83C682.787 258.389 681.571 258.898 680.328 259.35L679.987 258.413C679.084 258.742 678.167 259.041 677.236 259.309L677.513 260.268C676.255 260.632 674.973 260.938 673.672 261.189L673.483 260.212C672.541 260.393 671.587 260.544 670.624 260.663L670.746 261.652C669.45 261.812 668.136 261.915 666.808 261.959L666.775 260.963C666.294 260.979 665.81 260.987 665.324 260.987C664.839 260.987 664.355 260.979 663.873 260.963L663.84 261.959C662.511 261.915 661.198 261.812 659.902 261.652L660.024 260.663C659.061 260.544 658.108 260.393 657.166 260.212L656.977 261.189C655.675 260.938 654.394 260.632 653.136 260.268L653.413 259.309C652.483 259.041 651.565 258.742 650.662 258.413L650.319 259.35C649.077 258.898 647.861 258.39 646.674 257.831L647.099 256.93C646.223 256.518 645.364 256.076 644.522 255.608L644.037 256.479C642.884 255.838 641.761 255.148 640.674 254.409L641.236 253.583C640.437 253.039 639.658 252.469 638.898 251.874L638.281 252.66C637.244 251.847 636.245 250.987 635.285 250.086L635.969 249.36C635.265 248.699 634.583 248.015 633.925 247.308L633.194 247.987C632.297 247.024 631.443 246.022 630.634 244.981L631.422 244.368C630.83 243.606 630.263 242.824 629.723 242.023L628.894 242.582C628.158 241.493 627.473 240.368 626.835 239.212L627.708 238.73C627.243 237.887 626.805 237.026 626.396 236.149L625.492 236.57C624.937 235.381 624.432 234.164 623.982 232.92L624.922 232.581C624.595 231.677 624.299 230.759 624.032 229.828L623.072 230.102C622.712 228.844 622.406 227.562 622.157 226.26L623.137 226.072C622.957 225.13 622.807 224.176 622.689 223.213L621.698 223.333C621.54 222.037 621.438 220.724 621.395 219.395L622.391 219.363C622.375 218.881 622.367 218.397 622.367 217.911C622.367 217.425 622.375 216.941 622.391 216.46L621.395 216.427C621.438 215.098 621.54 213.785 621.698 212.489L622.689 212.61C622.807 211.647 622.956 210.692 623.137 209.75L622.157 209.562C622.406 208.26 622.712 206.978 623.072 205.72L624.032 205.995C624.299 205.064 624.595 204.146 624.922 203.242L623.982 202.902C624.432 201.658 624.937 200.441 625.492 199.252L626.396 199.674C626.805 198.797 627.243 197.936 627.708 197.093L626.835 196.61C627.467 195.464 628.146 194.349 628.874 193.268L628.894 193.24L629.723 193.8C630.263 192.998 630.83 192.216 631.422 191.455L630.634 190.841C631.443 189.8 632.298 188.798 633.195 187.835L633.925 188.514C634.583 187.808 635.265 187.124 635.969 186.463L635.285 185.736C636.245 184.835 637.244 183.975 638.281 183.162L638.898 183.949C639.658 183.354 640.437 182.784 641.236 182.24L640.674 181.413C641.761 180.673 642.884 179.984 644.037 179.343L644.522 180.215C645.364 179.747 646.223 179.305 647.099 178.893L646.674 177.991C647.861 177.432 649.077 176.924 650.319 176.471L650.662 177.41C651.565 177.081 652.483 176.782 653.413 176.513L653.136 175.554C654.394 175.19 655.675 174.884 656.977 174.633L657.166 175.611C658.108 175.43 659.061 175.279 660.024 175.16L659.902 174.17C661.198 174.01 662.512 173.907 663.84 173.863L663.873 174.86C664.355 174.844 664.839 174.836 665.324 174.836C665.81 174.836 666.294 174.844 666.775 174.86L666.808 173.863Z" stroke="#30BA78" stroke-width="2" stroke-dasharray="3 4"/>
<path d="M286.88 86.1225C288.209 86.1667 289.522 86.2693 290.818 86.4291L290.696 87.4194C291.66 87.5382 292.613 87.6889 293.556 87.8705L293.744 86.892C295.046 87.1429 296.327 87.4497 297.585 87.8129L297.309 88.7729C298.239 89.0415 299.156 89.3405 300.06 89.6694L300.4 88.7309C301.643 89.1834 302.859 89.6925 304.047 90.2514L303.623 91.1528C304.498 91.5646 305.357 92.0059 306.199 92.4741L306.684 91.602C307.837 92.2433 308.959 92.933 310.046 93.6723L309.484 94.4995C310.283 95.0431 311.064 95.6134 311.823 96.2084L312.438 95.4213C313.476 96.2342 314.475 97.0943 315.435 97.9955L314.753 98.7221C315.457 99.3829 316.138 100.067 316.796 100.774L317.525 100.094C318.423 101.057 319.278 102.06 320.087 103.101L319.299 103.714C319.891 104.476 320.458 105.258 320.999 106.059L321.827 105.499C322.562 106.589 323.248 107.714 323.886 108.87L323.013 109.352C323.478 110.195 323.916 111.056 324.325 111.933L325.229 111.511C325.783 112.7 326.288 113.918 326.737 115.162L325.799 115.501C326.125 116.405 326.423 117.323 326.689 118.254L327.648 117.979C328.009 119.238 328.313 120.52 328.562 121.822L327.584 122.009C327.764 122.952 327.914 123.906 328.032 124.87L329.022 124.748C329.181 126.044 329.282 127.358 329.326 128.686L328.33 128.719C328.346 129.201 328.354 129.685 328.354 130.17C328.354 130.656 328.346 131.141 328.33 131.622L329.326 131.655C329.282 132.983 329.181 134.296 329.022 135.592L328.032 135.472C327.914 136.436 327.764 137.389 327.584 138.331L328.562 138.519C328.314 139.821 328.009 141.103 327.648 142.362L326.689 142.087C326.423 143.018 326.125 143.936 325.799 144.84L326.737 145.179C326.288 146.423 325.783 147.64 325.229 148.83L324.325 148.409C323.916 149.285 323.478 150.146 323.013 150.99L323.886 151.471C323.248 152.627 322.562 153.752 321.827 154.841L320.999 154.283C320.458 155.084 319.891 155.866 319.299 156.627L320.087 157.24C319.278 158.28 318.422 159.283 317.525 160.246L316.796 159.568C316.138 160.274 315.457 160.959 314.753 161.62L315.435 162.345C314.475 163.246 313.476 164.106 312.438 164.919L311.823 164.133C311.064 164.728 310.283 165.299 309.484 165.842L310.046 166.668C308.959 167.408 307.837 168.097 306.684 168.739L306.199 167.868C305.357 168.336 304.498 168.777 303.623 169.189L304.047 170.089C302.859 170.648 301.643 171.157 300.4 171.61L300.06 170.672C299.156 171.001 298.239 171.3 297.309 171.569L297.585 172.528C296.327 172.891 295.046 173.198 293.744 173.449L293.556 172.471C292.613 172.653 291.66 172.803 290.696 172.922L290.818 173.912C289.522 174.071 288.209 174.174 286.88 174.218L286.848 173.222C286.366 173.238 285.882 173.247 285.396 173.247C284.911 173.247 284.427 173.238 283.945 173.222L283.912 174.218C282.584 174.174 281.271 174.071 279.975 173.912L280.097 172.922C279.134 172.804 278.18 172.653 277.238 172.471L277.049 173.449C275.747 173.198 274.466 172.891 273.208 172.528L273.485 171.569C272.555 171.3 271.638 171.001 270.734 170.672L270.392 171.61C269.149 171.157 267.933 170.649 266.746 170.09L267.171 169.189C266.296 168.777 265.437 168.336 264.595 167.868L264.109 168.739C262.956 168.097 261.833 167.408 260.746 166.668L261.309 165.842C260.51 165.299 259.73 164.728 258.971 164.133L258.354 164.919C257.316 164.106 256.317 163.246 255.357 162.345L256.041 161.62C255.337 160.959 254.655 160.274 253.997 159.568L253.267 160.247C252.37 159.284 251.515 158.281 250.706 157.241L251.494 156.627C250.902 155.866 250.336 155.084 249.795 154.283L248.966 154.841C248.231 153.752 247.545 152.627 246.907 151.471L247.78 150.99C247.315 150.146 246.877 149.285 246.468 148.409L245.564 148.83C245.009 147.64 244.504 146.423 244.055 145.179L244.994 144.84C244.668 143.936 244.371 143.018 244.104 142.087L243.145 142.362C242.784 141.103 242.478 139.821 242.229 138.519L243.209 138.331C243.029 137.389 242.88 136.435 242.762 135.472L241.771 135.592C241.612 134.296 241.511 132.983 241.467 131.655L242.463 131.622C242.447 131.141 242.439 130.656 242.439 130.17C242.439 129.685 242.447 129.201 242.463 128.719L241.467 128.686C241.511 127.358 241.612 126.044 241.771 124.748L242.762 124.87C242.88 123.906 243.029 122.952 243.209 122.009L242.229 121.822C242.479 120.52 242.784 119.238 243.145 117.979L244.104 118.254C244.371 117.323 244.668 116.405 244.994 115.501L244.055 115.162C244.504 113.917 245.009 112.7 245.564 111.511L246.468 111.933C246.877 111.056 247.315 110.195 247.78 109.352L246.907 108.87C247.539 107.724 248.218 106.608 248.946 105.528L248.966 105.499L249.795 106.059C250.336 105.258 250.902 104.476 251.494 103.714L250.706 103.1C251.515 102.059 252.371 101.057 253.268 100.094L253.997 100.774C254.655 100.067 255.337 99.383 256.041 98.7221L255.357 97.9955C256.317 97.0943 257.316 96.2342 258.354 95.4213L258.971 96.2084C259.73 95.6134 260.51 95.0431 261.309 94.4995L260.746 93.6723C261.833 92.9329 262.956 92.2434 264.109 91.602L264.595 92.4741C265.437 92.0059 266.296 91.5646 267.171 91.1528L266.746 90.2504C267.933 89.6917 269.149 89.1833 270.392 88.7309L270.734 89.6694C271.638 89.3405 272.555 89.0415 273.485 88.7729L273.208 87.8129C274.466 87.4496 275.747 87.1429 277.049 86.892L277.238 87.8705C278.18 87.6889 279.134 87.5382 280.097 87.4194L279.975 86.4291C281.271 86.2693 282.584 86.1667 283.912 86.1225L283.945 87.1196C284.427 87.1035 284.911 87.0952 285.396 87.0952C285.882 87.0952 286.366 87.1035 286.848 87.1196L286.88 86.1225Z" stroke="#30BA78" stroke-width="2" stroke-dasharray="3 4"/>
<path d="M35.8799 117.122C37.2085 117.167 38.5221 117.269 39.8184 117.429L39.6963 118.419C40.6596 118.538 41.6133 118.689 42.5557 118.871L42.7441 117.892C44.0457 118.143 45.327 118.45 46.585 118.813L46.3086 119.773C47.2389 120.042 48.1564 120.341 49.0596 120.669L49.4004 119.731C50.6433 120.183 51.8591 120.693 53.0469 121.251L52.623 122.153C53.4983 122.565 54.3574 123.006 55.1992 123.474L55.6836 122.602C56.8368 123.243 57.9592 123.933 59.0459 124.672L58.4844 125.499C59.2834 126.043 60.0638 126.613 60.8232 127.208L61.4385 126.421C62.476 127.234 63.4747 128.094 64.4346 128.996L63.7529 129.722C64.4566 130.383 65.1378 131.067 65.7959 131.774L66.5254 131.094C67.4226 132.057 68.2779 133.06 69.0869 134.101L68.2988 134.714C68.8908 135.476 69.4583 136.258 69.999 137.059L70.8271 136.499C71.5623 137.589 72.2482 138.714 72.8857 139.87L72.0127 140.352C72.4779 141.195 72.916 142.056 73.3252 142.933L74.2285 142.511C74.7835 143.7 75.288 144.918 75.7373 146.162L74.7988 146.501C75.1253 147.405 75.4228 148.323 75.6895 149.254L76.6484 148.979C77.009 150.238 77.3135 151.52 77.5625 152.822L76.584 153.009C76.7642 153.952 76.9143 154.906 77.0322 155.87L78.0225 155.748C78.181 157.044 78.2823 158.358 78.3262 159.686L77.3301 159.719C77.346 160.201 77.3545 160.685 77.3545 161.17C77.3545 161.656 77.346 162.141 77.3301 162.622L78.3262 162.655C78.2823 163.983 78.181 165.296 78.0225 166.592L77.0322 166.472C76.9143 167.436 76.7642 168.389 76.584 169.331L77.5625 169.519C77.3135 170.821 77.009 172.103 76.6484 173.362L75.6895 173.087C75.4228 174.018 75.1253 174.936 74.7988 175.84L75.7373 176.179C75.288 177.423 74.7835 178.64 74.2285 179.83L73.3252 179.409C72.916 180.285 72.4779 181.146 72.0127 181.99L72.8857 182.471C72.2482 183.627 71.5623 184.752 70.8271 185.841L69.999 185.283C69.4583 186.084 68.8908 186.866 68.2988 187.627L69.0869 188.24C68.278 189.28 67.4224 190.283 66.5254 191.246L65.7959 190.568C65.1378 191.274 64.4566 191.959 63.7529 192.62L64.4346 193.345C63.4747 194.246 62.476 195.106 61.4385 195.919L60.8232 195.133C60.0638 195.728 59.2834 196.299 58.4844 196.842L59.0459 197.668C57.9592 198.408 56.8368 199.097 55.6836 199.739L55.1992 198.868C54.3574 199.336 53.4983 199.777 52.623 200.189L53.0469 201.089C51.8591 201.648 50.6433 202.157 49.4004 202.61L49.0596 201.672C48.1564 202.001 47.2389 202.3 46.3086 202.569L46.585 203.528C45.327 203.891 44.0457 204.198 42.7441 204.449L42.5557 203.471C41.6133 203.653 40.6596 203.803 39.6963 203.922L39.8184 204.912C38.5221 205.071 37.2086 205.174 35.8799 205.218L35.8477 204.222C35.366 204.238 34.8821 204.247 34.3965 204.247C33.9109 204.247 33.4269 204.238 32.9453 204.222L32.9121 205.218C31.5838 205.174 30.2706 205.071 28.9746 204.912L29.0967 203.922C28.1336 203.804 27.1804 203.653 26.2383 203.471L26.0488 204.449C24.7473 204.198 23.466 203.891 22.208 203.528L22.4854 202.569C21.5551 202.3 20.6376 202.001 19.7344 201.672L19.3916 202.61C18.1491 202.157 16.9335 201.649 15.7461 201.09L16.1709 200.189C15.2957 199.777 14.4366 199.336 13.5947 198.868L13.1094 199.739C11.9559 199.097 10.833 198.408 9.74609 197.668L10.3086 196.842C9.50957 196.299 8.73008 195.728 7.9707 195.133L7.35352 195.919C6.31602 195.106 5.31723 194.246 4.35742 193.345L5.04102 192.62C4.33724 191.959 3.65522 191.274 2.99707 190.568L2.2666 191.247C1.36976 190.284 0.514817 189.281 -0.293945 188.241L0.494141 187.627C-0.0977157 186.866 -0.664388 186.084 -1.20508 185.283L-2.03418 185.841C-2.76932 184.752 -3.45522 183.627 -4.09277 182.471L-3.21973 181.99C-3.68495 181.146 -4.12301 180.285 -4.53223 179.409L-5.43555 179.83C-5.99054 178.64 -6.49599 177.423 -6.94531 176.179L-6.00586 175.84C-6.33231 174.936 -6.62884 174.018 -6.89551 173.087L-7.85547 173.362C-8.21605 172.103 -8.52151 170.821 -8.77051 169.519L-7.79102 169.331C-7.97122 168.389 -8.1204 167.435 -8.23828 166.472L-9.22949 166.592C-9.38803 165.296 -9.48938 163.983 -9.5332 162.655L-8.53711 162.622C-8.55301 162.141 -8.56055 161.656 -8.56055 161.17C-8.56054 160.685 -8.55301 160.201 -8.53711 159.719L-9.5332 159.686C-9.48935 158.358 -9.38806 157.044 -9.22949 155.748L-8.23828 155.87C-8.12038 154.906 -7.97127 153.952 -7.79102 153.009L-8.77051 152.822C-8.52149 151.52 -8.21607 150.238 -7.85547 148.979L-6.89551 149.254C-6.62884 148.323 -6.33231 147.405 -6.00586 146.501L-6.94531 146.162C-6.49597 144.917 -5.99056 143.7 -5.43555 142.511L-4.53223 142.933C-4.12302 142.056 -3.68494 141.195 -3.21973 140.352L-4.09277 139.87C-3.46077 138.724 -2.78163 137.608 -2.05371 136.528L-2.03418 136.499L-1.20508 137.059C-0.664388 136.258 -0.0977154 135.476 0.494141 134.714L-0.293945 134.1C0.51496 133.059 1.37056 132.057 2.26758 131.094L2.99707 131.774C3.65523 131.067 4.33723 130.383 5.04102 129.722L4.35742 128.996C5.31723 128.094 6.31602 127.234 7.35352 126.421L7.9707 127.208C8.73007 126.613 9.50958 126.043 10.3086 125.499L9.74609 124.672C10.8329 123.933 11.956 123.243 13.1094 122.602L13.5947 123.474C14.4366 123.006 15.2957 122.565 16.1709 122.153L15.7461 121.25C16.9335 120.692 18.1491 120.183 19.3916 119.731L19.7344 120.669C20.6376 120.341 21.5551 120.042 22.4854 119.773L22.208 118.813C23.466 118.45 24.7473 118.143 26.0488 117.892L26.2383 118.871C27.1804 118.689 28.1336 118.538 29.0967 118.419L28.9746 117.429C30.2705 117.269 31.5838 117.167 32.9121 117.122L32.9453 118.12C33.4269 118.104 33.9109 118.095 34.3965 118.095C34.8821 118.095 35.366 118.104 35.8477 118.12L35.8799 117.122Z" stroke="#30BA78" stroke-width="2" stroke-dasharray="3 4"/>
<path d="M494.005 121.345C495.334 121.389 496.647 121.492 497.943 121.652L497.821 122.642C498.785 122.761 499.738 122.911 500.681 123.093L500.869 122.115C502.171 122.365 503.452 122.672 504.71 123.035L504.434 123.995C505.364 124.264 506.281 124.563 507.185 124.892L507.525 123.953C508.768 124.406 509.984 124.915 511.172 125.474L510.748 126.375C511.623 126.787 512.482 127.228 513.324 127.697L513.809 126.825C514.962 127.466 516.084 128.156 517.171 128.895L516.609 129.722C517.408 130.266 518.189 130.836 518.948 131.431L519.563 130.644C520.601 131.457 521.6 132.317 522.56 133.218L521.878 133.945C522.582 134.605 523.263 135.29 523.921 135.996L524.65 135.317C525.548 136.28 526.403 137.283 527.212 138.324L526.424 138.937C527.016 139.698 527.583 140.48 528.124 141.282L528.952 140.722C529.687 141.811 530.373 142.936 531.011 144.092L530.138 144.575C530.603 145.418 531.041 146.279 531.45 147.156L532.354 146.734C532.908 147.923 533.413 149.14 533.862 150.384L532.924 150.724C533.25 151.628 533.548 152.546 533.814 153.477L534.773 153.202C535.134 154.46 535.438 155.742 535.688 157.044L534.709 157.232C534.889 158.174 535.039 159.129 535.157 160.092L536.147 159.971C536.306 161.267 536.407 162.58 536.451 163.909L535.455 163.942C535.471 164.423 535.479 164.907 535.479 165.393C535.479 165.879 535.471 166.363 535.455 166.845L536.451 166.877C536.407 168.206 536.306 169.519 536.147 170.815L535.157 170.695C535.039 171.658 534.889 172.612 534.709 173.554L535.688 173.742C535.439 175.044 535.134 176.326 534.773 177.584L533.814 177.31C533.548 178.241 533.25 179.159 532.924 180.063L533.862 180.402C533.413 181.646 532.908 182.863 532.354 184.052L531.45 183.631C531.041 184.508 530.603 185.369 530.138 186.212L531.011 186.694C530.373 187.849 529.687 188.975 528.952 190.064L528.124 189.505C527.583 190.306 527.016 191.088 526.424 191.85L527.212 192.462C526.403 193.503 525.547 194.505 524.65 195.468L523.921 194.79C523.263 195.497 522.582 196.181 521.878 196.842L522.56 197.568C521.6 198.469 520.601 199.329 519.563 200.142L518.948 199.356C518.189 199.951 517.408 200.521 516.609 201.065L517.171 201.891C516.084 202.63 514.962 203.32 513.809 203.961L513.324 203.09C512.482 203.558 511.623 204 510.748 204.411L511.172 205.312C509.984 205.871 508.768 206.38 507.525 206.832L507.185 205.895C506.281 206.224 505.364 206.523 504.434 206.791L504.71 207.75C503.452 208.114 502.171 208.42 500.869 208.671L500.681 207.694C499.738 207.875 498.785 208.026 497.821 208.145L497.943 209.134C496.647 209.294 495.334 209.397 494.005 209.441L493.973 208.445C493.491 208.461 493.007 208.469 492.521 208.469C492.036 208.469 491.552 208.461 491.07 208.445L491.037 209.441C489.709 209.397 488.396 209.294 487.1 209.134L487.222 208.145C486.259 208.026 485.305 207.875 484.363 207.694L484.174 208.671C482.872 208.42 481.591 208.114 480.333 207.75L480.61 206.791C479.68 206.523 478.763 206.224 477.859 205.895L477.517 206.832C476.274 206.38 475.058 205.872 473.871 205.313L474.296 204.411C473.421 204 472.562 203.558 471.72 203.09L471.234 203.961C470.081 203.32 468.958 202.63 467.871 201.891L468.434 201.065C467.635 200.521 466.855 199.951 466.096 199.356L465.479 200.142C464.441 199.329 463.442 198.469 462.482 197.568L463.166 196.842C462.462 196.181 461.78 195.497 461.122 194.79L460.392 195.469C459.495 194.506 458.64 193.504 457.831 192.463L458.619 191.85C458.027 191.088 457.461 190.306 456.92 189.505L456.091 190.064C455.356 188.975 454.67 187.849 454.032 186.694L454.905 186.212C454.44 185.369 454.002 184.508 453.593 183.631L452.689 184.052C452.134 182.863 451.629 181.646 451.18 180.402L452.119 180.063C451.793 179.159 451.496 178.241 451.229 177.31L450.27 177.584C449.909 176.326 449.603 175.044 449.354 173.742L450.334 173.554C450.154 172.612 450.005 171.658 449.887 170.695L448.896 170.815C448.737 169.519 448.636 168.206 448.592 166.877L449.588 166.845C449.572 166.363 449.564 165.879 449.564 165.393C449.564 164.907 449.572 164.423 449.588 163.942L448.592 163.909C448.636 162.58 448.737 161.267 448.896 159.971L449.887 160.092C450.005 159.129 450.154 158.174 450.334 157.232L449.354 157.044C449.604 155.742 449.909 154.46 450.27 153.202L451.229 153.477C451.496 152.546 451.793 151.628 452.119 150.724L451.18 150.384C451.629 149.14 452.134 147.923 452.689 146.734L453.593 147.156C454.002 146.279 454.44 145.418 454.905 144.575L454.032 144.092C454.664 142.946 455.343 141.831 456.071 140.75L456.091 140.722L456.92 141.282C457.461 140.48 458.027 139.698 458.619 138.937L457.831 138.323C458.64 137.282 459.496 136.28 460.393 135.317L461.122 135.996C461.78 135.29 462.462 134.606 463.166 133.945L462.482 133.218C463.442 132.317 464.441 131.457 465.479 130.644L466.096 131.431C466.855 130.836 467.635 130.266 468.434 129.722L467.871 128.895C468.958 128.155 470.081 127.466 471.234 126.825L471.72 127.697C472.562 127.228 473.421 126.787 474.296 126.375L473.871 125.473C475.058 124.914 476.274 124.406 477.517 123.953L477.859 124.892C478.763 124.563 479.68 124.264 480.61 123.995L480.333 123.035C481.591 122.672 482.872 122.366 484.174 122.115L484.363 123.093C485.305 122.912 486.259 122.761 487.222 122.642L487.1 121.652C488.396 121.492 489.709 121.389 491.037 121.345L491.07 122.342C491.552 122.326 492.036 122.318 492.521 122.318C493.007 122.318 493.491 122.326 493.973 122.342L494.005 121.345Z" stroke="#30BA78" stroke-width="2" stroke-dasharray="3 4"/>
</g>
<path opacity="0.375052" d="M1.49869 345.084H759.501" stroke="#0B322C" stroke-width="0.5" stroke-linecap="square"/>
<path opacity="0.375052" d="M1.49869 410.948H759.501" stroke="#0B322C" stroke-width="0.5" stroke-linecap="square"/>
<path opacity="0.375052" d="M1.49869 186.071H759.501" stroke="#0B322C" stroke-width="0.5" stroke-linecap="square"/>
<path opacity="0.375052" d="M1.49869 117.385H759.501" stroke="#0B322C" stroke-width="0.5" stroke-linecap="square"/>
<path opacity="0.375052" d="M1.49869 107.976H759.501" stroke="#0B322C" stroke-width="0.5" stroke-linecap="square"/>
<rect width="760" height="506" fill="#EFEFEF"/>
<rect width="63.6404" height="6" fill="#0B322C"/>
<rect x="63.3047" width="63.6404" height="6" fill="#0B322C"/>
<rect x="126.611" width="63.6404" height="6" fill="#FE7B3F"/>
<rect x="189.916" width="63.6404" height="6" fill="#2FBA78"/>
<rect x="253.223" width="63.6404" height="6" fill="#2FBA78"/>
<rect x="316.527" width="63.6404" height="6" fill="#2FBA78"/>
<rect x="379.832" width="63.6404" height="6" fill="#2FBA78"/>
<rect x="443.139" width="63.6404" height="6" fill="#2FBA78"/>
<rect x="506.443" width="63.6404" height="6" fill="#EFEFEF"/>
<rect x="569.748" width="63.6404" height="6" fill="#2453FF"/>
<rect x="633.055" width="63.6404" height="6" fill="#2453FF"/>
<rect x="696.359" width="63.6404" height="6" fill="#2453FF"/>
<path d="M-32.7118 349.93C38.3491 349.93 80.7249 297.123 70.9458 218.239H-25.5405V255.725H26.2883C25.3104 285.388 1.51477 306.576 -31.408 306.576C-72.8058 306.576 -102.143 276.261 -102.143 232.581V229.648C-102.143 186.294 -72.4799 155.653 -30.1041 155.653C-10.546 155.653 6.40427 162.498 20.0949 177.819L52.3657 145.874C31.1778 124.686 3.47057 111.973 -30.756 111.973C-100.513 111.973 -149.408 160.542 -149.408 229.648V232.581C-149.408 301.36 -101.165 349.93 -32.7118 349.93Z" fill="#0B322C"/>
<path d="M142.659 345.04H256.422V303.316H158.306C153.09 303.316 149.178 299.079 149.178 293.863V250.183H249.576V210.415H149.178V168.04C149.178 162.824 153.09 158.587 158.306 158.587H256.422V116.863H142.659C119.841 116.863 103.543 133.161 103.543 155.653V306.25C103.543 328.742 119.841 345.04 142.659 345.04Z" fill="#0B322C"/>
<path d="M343.129 345.04H363.339V309.184H345.737C340.521 309.184 336.609 304.946 336.609 300.057V107.084H268.156V143.592H293.256V299.079C293.256 327.764 312.488 345.04 343.129 345.04Z" fill="#0B322C"/>
<path fill-rule="evenodd" clip-rule="evenodd" d="M483.295 410.234H381.268V374.703H478.732C487.207 374.703 490.793 371.117 490.793 363.946C490.793 356.775 487.207 353.189 478.732 353.189H418.754C393.654 353.189 387.135 331.349 397.566 309.836L407.345 289.626C391.699 279.195 382.245 262.896 382.245 243.338V240.078C382.245 206.178 411.909 182.056 453.958 182.056H455.262L468.953 152.067H512.632L491.771 189.879C512.632 199.659 525.671 217.587 525.671 239.753V243.338C525.671 278.217 496.008 302.664 453.958 302.664C449.721 302.664 445.809 302.338 441.898 302.012L435.704 314.399C434.4 317.007 435.052 319.615 438.312 319.615H485.251C512.307 319.615 531.213 333.305 531.213 364.272C531.213 390.675 511.329 410.234 483.295 410.234ZM424.621 242.034V243.664C424.621 258.985 436.682 270.068 453.958 270.068C471.235 270.068 483.295 258.985 483.295 243.664V242.034C483.295 226.714 471.235 216.609 453.958 216.609C436.682 216.609 424.621 227.04 424.621 242.034Z" fill="#0B322C"/>
<path fill-rule="evenodd" clip-rule="evenodd" d="M617.919 155.001H570.328V109.366H617.919V155.001ZM615.637 345.04H572.283V221.824H544.576V185.316H615.637V345.04Z" fill="#0B322C"/>
<path fill-rule="evenodd" clip-rule="evenodd" d="M788.075 345.04H749.611V328.09C741.787 341.128 726.793 348.3 704.953 348.3C669.097 348.3 645.627 329.068 645.627 301.034C645.627 272.349 669.097 251.813 711.146 251.813C724.511 251.813 735.594 254.095 744.395 258.007V244.642C744.395 226.714 732.66 219.543 716.036 219.543C700.715 219.543 682.135 225.736 669.423 236.493L650.19 207.808C664.533 192.161 690.936 182.056 718.644 182.056C758.738 182.056 787.097 203.244 787.097 242.36V294.189C787.097 311.139 787.097 328.09 788.075 345.04ZM716.688 280.824C700.39 280.824 688.981 287.996 688.981 298.753C688.981 309.51 700.39 317.007 716.688 317.007C733.312 317.007 744.721 309.51 744.721 298.753C744.721 287.996 733.312 280.824 716.688 280.824Z" fill="#0B322C"/>
<path d="M160.26 91.36C161.47 91.8579 162.66 92.3964 163.827 92.9743H163.828L163.384 93.8698C164.247 94.2972 165.098 94.7471 165.936 95.2174L166.424 94.3454C167.564 94.9858 168.68 95.6641 169.77 96.3795L169.222 97.2155C170.026 97.7438 170.816 98.2928 171.591 98.861L172.182 98.0553C173.235 98.8278 174.261 99.6353 175.258 100.477V100.478L174.613 101.242C175.348 101.863 176.066 102.502 176.768 103.16L177.451 102.43C178.404 103.323 179.326 104.248 180.215 105.204V105.205L179.482 105.885C180.137 106.59 180.774 107.311 181.393 108.048L182.158 107.406C182.996 108.405 183.8 109.434 184.568 110.491H184.569L183.761 111.08C184.326 111.857 184.872 112.649 185.397 113.456L186.234 112.91C186.946 114.002 187.621 115.119 188.258 116.261V116.262L187.385 116.75C187.852 117.588 188.299 118.441 188.724 119.305L189.62 118.864C190.194 120.032 190.73 121.223 191.225 122.435V122.436L190.299 122.813C190.661 123.701 191.001 124.601 191.318 125.511L192.262 125.182C192.69 126.41 193.076 127.658 193.421 128.923H193.422L192.457 129.185C192.709 130.11 192.939 131.045 193.144 131.988L194.12 131.775V131.774C194.396 133.043 194.628 134.329 194.817 135.629L193.83 135.773C193.968 136.72 194.083 137.675 194.173 138.637L195.167 138.545C195.288 139.835 195.366 141.137 195.399 142.451H195.4L194.4 142.476C194.413 142.957 194.419 143.44 194.419 143.923C194.419 144.407 194.413 144.89 194.4 145.371L195.399 145.395C195.366 146.709 195.288 148.011 195.167 149.301L194.173 149.209C194.083 150.171 193.968 151.127 193.83 152.074L194.817 152.217C194.628 153.517 194.396 154.802 194.12 156.071L193.144 155.859C192.939 156.802 192.709 157.736 192.457 158.661L193.421 158.923C193.076 160.188 192.69 161.435 192.262 162.663L191.318 162.335C191.001 163.245 190.661 164.145 190.299 165.033L191.224 165.41C190.729 166.622 190.194 167.813 189.62 168.981L188.724 168.542C188.299 169.406 187.852 170.259 187.385 171.097L188.258 171.584C187.621 172.726 186.946 173.843 186.234 174.935L185.397 174.391C184.872 175.198 184.326 175.99 183.761 176.767L184.568 177.354C183.8 178.411 182.996 179.44 182.158 180.439L181.393 179.798C180.774 180.536 180.137 181.256 179.482 181.961L180.215 182.642C179.326 183.598 178.403 184.522 177.451 185.415L176.768 184.686C176.066 185.344 175.348 185.984 174.613 186.605L175.257 187.368C174.26 188.21 173.235 189.018 172.182 189.791L171.591 188.985C170.816 189.553 170.026 190.102 169.222 190.631L169.77 191.465C168.68 192.181 167.564 192.86 166.424 193.501L165.936 192.63C165.098 193.1 164.247 193.549 163.384 193.976L163.827 194.872C162.66 195.45 161.47 195.988 160.26 196.486L159.881 195.562C158.994 195.927 158.095 196.269 157.186 196.589L157.516 197.531C156.289 197.962 155.043 198.352 153.779 198.699L153.515 197.736C152.591 197.99 151.657 198.221 150.715 198.427L150.928 199.403C149.659 199.681 148.374 199.915 147.075 200.106L146.931 199.119C145.984 199.258 145.028 199.374 144.066 199.465L144.16 200.459C142.87 200.58 141.568 200.659 140.254 200.693L140.229 199.695C139.748 199.707 139.266 199.713 138.782 199.713C138.298 199.713 137.816 199.707 137.335 199.695L137.31 200.693C135.996 200.659 134.693 200.581 133.403 200.459L133.497 199.465C132.535 199.374 131.58 199.258 130.633 199.119L130.487 200.106C129.188 199.915 127.904 199.681 126.635 199.403L126.85 198.427C125.907 198.221 124.973 197.99 124.049 197.736L123.784 198.699C122.52 198.352 121.274 197.962 120.047 197.531L120.378 196.589C119.469 196.269 118.57 195.927 117.683 195.562L117.303 196.486C116.092 195.988 114.902 195.45 113.735 194.872L114.18 193.976C113.317 193.549 112.466 193.1 111.629 192.63L111.139 193.501C109.998 192.86 108.883 192.181 107.793 191.465L108.343 190.631C107.538 190.102 106.748 189.553 105.973 188.985L105.381 189.791C104.328 189.018 103.302 188.21 102.306 187.368L102.951 186.605C102.216 185.984 101.498 185.344 100.796 184.686L100.111 185.415C99.1592 184.522 98.2375 183.597 97.3486 182.641L98.0811 181.961C97.4263 181.256 96.789 180.536 96.1709 179.798L95.4043 180.439C94.5665 179.44 93.7627 178.411 92.9941 177.354L93.8027 176.767C93.2375 175.99 92.6914 175.198 92.166 174.391L91.3281 174.935C90.6169 173.843 89.9412 172.726 89.3047 171.584H89.3057L90.1787 171.097C89.7113 170.258 89.2646 169.406 88.8398 168.542L87.9424 168.981C87.3685 167.813 86.8333 166.622 86.3389 165.41L87.2646 165.033C86.9023 164.145 86.5624 163.245 86.2451 162.335L85.3008 162.663C84.8729 161.435 84.4861 160.188 84.1416 158.923L85.1064 158.661C84.8546 157.736 84.6259 156.802 84.4209 155.859L83.4434 156.071H83.4424C83.1666 154.802 82.9347 153.517 82.7451 152.217L83.7334 152.074C83.5951 151.127 83.4808 150.171 83.3906 149.209L82.3955 149.301C82.2746 148.011 82.1964 146.709 82.1631 145.395L83.1631 145.371C83.157 145.13 83.1525 144.889 83.1494 144.648L83.1445 143.923C83.1445 143.44 83.1509 142.957 83.1631 142.476L82.1631 142.451C82.1964 141.137 82.2746 139.835 82.3955 138.545L83.3906 138.637C83.4808 137.675 83.5952 136.72 83.7334 135.773L82.7451 135.629C82.9348 134.329 83.1665 133.043 83.4424 131.774L83.4434 131.775L84.4209 131.988C84.6259 131.045 84.8545 130.11 85.1064 129.185L84.1416 128.923C84.4862 127.658 84.8728 126.41 85.3008 125.182L86.2451 125.511C86.5624 124.601 86.9023 123.701 87.2646 122.813L86.3389 122.436L86.3379 122.435C86.8324 121.223 87.3684 120.032 87.9424 118.864L88.8398 119.305C89.2646 118.441 89.7113 117.588 90.1787 116.75L89.3057 116.262L89.3047 116.261C89.9412 115.119 90.6169 114.002 91.3281 112.91L92.166 113.456C92.6915 112.649 93.2374 111.857 93.8027 111.08L92.9941 110.491C93.7627 109.434 94.5665 108.405 95.4043 107.406L96.1709 108.048C96.7891 107.311 97.4262 106.59 98.0811 105.885L97.3486 105.205C98.2377 104.249 99.159 103.323 100.111 102.43L100.796 103.16C101.497 102.502 102.216 101.863 102.951 101.242L102.306 100.478L102.305 100.477C103.301 99.6352 104.327 98.8279 105.381 98.0553L105.973 98.861C106.748 98.2927 107.538 97.7438 108.343 97.2155L107.793 96.3795C108.883 95.6641 109.999 94.9858 111.139 94.3454L111.629 95.2174C112.466 94.7471 113.317 94.2972 114.18 93.8698L113.735 92.9743C114.72 92.4868 115.721 92.0271 116.736 91.5963L117.303 91.36L117.683 92.2848C118.57 91.92 119.469 91.577 120.378 91.2575L120.047 90.3141C121.274 89.883 122.52 89.4933 123.784 89.1461L124.049 90.11C124.973 89.8562 125.907 89.6261 126.85 89.4196L126.635 88.443L126.634 88.442C127.903 88.164 129.188 87.9301 130.487 87.7389L130.633 88.7272C131.58 88.5879 132.535 88.4724 133.497 88.3815L133.403 87.3864C134.693 87.2645 135.996 87.1856 137.31 87.152L137.335 88.152C137.816 88.1397 138.298 88.1335 138.782 88.1335C139.266 88.1335 139.748 88.1397 140.229 88.152L140.253 87.152C141.567 87.1856 142.87 87.2645 144.16 87.3864L144.066 88.3815C145.028 88.4724 145.984 88.5879 146.931 88.7272L147.075 87.7389C148.374 87.9301 149.66 88.164 150.929 88.442V88.443L150.715 89.4196C151.657 89.6261 152.591 89.8563 153.515 90.11L153.779 89.1461C155.043 89.4932 156.289 89.8831 157.516 90.3141H157.517L157.186 91.2575C158.095 91.577 158.994 91.92 159.881 92.2848L160.26 91.36Z" stroke="#30BA78" stroke-width="2" stroke-dasharray="3 4"/>
<path d="M353.997 280.6C355.326 280.644 356.639 280.747 357.936 280.907L357.813 281.897C358.777 282.016 359.73 282.167 360.673 282.348L360.861 281.37C362.163 281.621 363.444 281.927 364.702 282.291L364.426 283.251C365.356 283.519 366.274 283.818 367.177 284.147L367.518 283.209C368.761 283.661 369.976 284.17 371.164 284.729L370.74 285.63C371.615 286.042 372.475 286.484 373.316 286.952L373.801 286.08C374.954 286.721 376.076 287.411 377.163 288.15L376.602 288.977C377.401 289.521 378.181 290.091 378.94 290.686L379.556 289.899C380.593 290.712 381.592 291.572 382.552 292.473L381.87 293.2C382.574 293.861 383.255 294.545 383.913 295.252L384.643 294.572C385.54 295.535 386.395 296.538 387.204 297.579L386.416 298.192C387.008 298.954 387.575 299.735 388.116 300.537L388.944 299.977C389.679 301.066 390.365 302.192 391.003 303.347L390.13 303.83C390.595 304.673 391.033 305.534 391.442 306.411L392.346 305.989C392.901 307.178 393.405 308.395 393.854 309.639L392.916 309.979C393.243 310.883 393.54 311.801 393.807 312.732L394.766 312.457C395.126 313.715 395.431 314.997 395.68 316.299L394.701 316.487C394.881 317.43 395.032 318.384 395.149 319.347L396.14 319.226C396.298 320.522 396.4 321.835 396.443 323.164L395.447 323.197C395.463 323.679 395.472 324.162 395.472 324.648C395.472 325.134 395.463 325.618 395.447 326.1L396.443 326.132C396.4 327.461 396.298 328.774 396.14 330.07L395.149 329.95C395.032 330.913 394.881 331.867 394.701 332.809L395.68 332.997C395.431 334.299 395.126 335.581 394.766 336.839L393.807 336.565C393.54 337.496 393.243 338.414 392.916 339.318L393.854 339.657C393.405 340.901 392.901 342.118 392.346 343.307L391.442 342.886C391.033 343.763 390.595 344.624 390.13 345.467L391.003 345.949C390.365 347.105 389.679 348.23 388.944 349.319L388.116 348.76C387.575 349.562 387.008 350.343 386.416 351.105L387.204 351.717C386.395 352.758 385.54 353.76 384.643 354.723L383.913 354.046C383.255 354.752 382.574 355.437 381.87 356.097L382.552 356.823C381.592 357.724 380.593 358.584 379.556 359.397L378.94 358.611C378.181 359.206 377.401 359.776 376.602 360.32L377.163 361.146C376.076 361.885 374.954 362.575 373.801 363.216L373.316 362.345C372.475 362.813 371.615 363.255 370.74 363.667L371.164 364.567C369.976 365.126 368.761 365.635 367.518 366.088L367.177 365.15C366.274 365.479 365.356 365.778 364.426 366.047L364.702 367.005C363.444 367.369 362.163 367.675 360.861 367.926L360.673 366.949C359.73 367.131 358.777 367.281 357.813 367.4L357.936 368.389C356.639 368.549 355.326 368.652 353.997 368.696L353.965 367.7C353.483 367.716 352.999 367.724 352.514 367.724C352.028 367.724 351.544 367.716 351.062 367.7L351.029 368.696C349.701 368.652 348.388 368.549 347.092 368.389L347.214 367.4C346.251 367.281 345.298 367.13 344.355 366.949L344.166 367.926C342.864 367.675 341.583 367.369 340.325 367.005L340.603 366.047C339.672 365.778 338.755 365.479 337.852 365.15L337.509 366.088C336.266 365.635 335.051 365.127 333.863 364.568L334.288 363.667C333.413 363.255 332.554 362.813 331.712 362.345L331.227 363.216C330.073 362.575 328.95 361.886 327.863 361.146L328.426 360.32C327.627 359.776 326.847 359.206 326.088 358.611L325.471 359.397C324.433 358.584 323.434 357.724 322.475 356.823L323.158 356.097C322.454 355.436 321.772 354.752 321.114 354.046L320.384 354.724C319.487 353.761 318.632 352.759 317.823 351.718L318.611 351.105C318.019 350.344 317.453 349.562 316.912 348.76L316.083 349.319C315.348 348.23 314.662 347.105 314.024 345.949L314.897 345.467C314.432 344.624 313.994 343.763 313.585 342.886L312.682 343.307C312.127 342.118 311.621 340.901 311.172 339.657L312.111 339.318C311.785 338.414 311.488 337.496 311.222 336.565L310.262 336.839C309.901 335.581 309.596 334.299 309.347 332.997L310.326 332.809C310.146 331.867 309.997 330.913 309.879 329.95L308.888 330.07C308.729 328.774 308.628 327.461 308.584 326.132L309.58 326.1C309.564 325.618 309.557 325.134 309.557 324.648C309.557 324.162 309.564 323.679 309.58 323.197L308.584 323.164C308.628 321.835 308.729 320.522 308.888 319.226L309.879 319.347C309.997 318.384 310.146 317.43 310.326 316.487L309.347 316.299C309.596 314.997 309.901 313.715 310.262 312.457L311.222 312.732C311.488 311.801 311.785 310.883 312.111 309.979L311.172 309.639C311.621 308.395 312.127 307.178 312.682 305.989L313.585 306.411C313.994 305.534 314.432 304.673 314.897 303.83L314.024 303.347C314.656 302.202 315.336 301.086 316.063 300.005L316.083 299.977L316.912 300.537C317.453 299.736 318.019 298.954 318.611 298.192L317.823 297.578C318.632 296.537 319.488 295.535 320.385 294.572L321.114 295.252C321.772 294.545 322.454 293.861 323.158 293.2L322.475 292.473C323.434 291.572 324.433 290.712 325.471 289.899L326.088 290.686C326.847 290.091 327.627 289.521 328.426 288.977L327.863 288.15C328.95 287.411 330.073 286.721 331.227 286.08L331.712 286.952C332.554 286.484 333.413 286.042 334.288 285.63L333.863 284.728C335.051 284.169 336.266 283.661 337.509 283.209L337.852 284.147C338.755 283.818 339.672 283.519 340.603 283.251L340.325 282.291C341.583 281.927 342.864 281.621 344.166 281.37L344.355 282.348C345.298 282.167 346.251 282.016 347.214 281.897L347.092 280.907C348.388 280.747 349.701 280.644 351.029 280.6L351.062 281.597C351.544 281.581 352.028 281.573 352.514 281.573C352.999 281.573 353.483 281.581 353.965 281.597L353.997 280.6Z" stroke="#30BA78" stroke-width="2" stroke-dasharray="3 4"/>
<path d="M394.817 345.876C396.146 345.92 397.46 346.023 398.756 346.183L398.634 347.173C399.597 347.292 400.551 347.442 401.493 347.624L401.682 346.646C402.983 346.896 404.265 347.203 405.522 347.566L405.246 348.526C406.176 348.795 407.094 349.094 407.997 349.423L408.338 348.484C409.581 348.937 410.797 349.446 411.984 350.005L411.561 350.906C412.436 351.318 413.295 351.759 414.137 352.228L414.621 351.356C415.774 351.997 416.897 352.687 417.983 353.426L417.422 354.253C418.221 354.797 419.001 355.367 419.761 355.962L420.376 355.175C421.414 355.988 422.412 356.848 423.372 357.749L422.69 358.476C423.394 359.136 424.075 359.821 424.733 360.527L425.463 359.848C426.36 360.811 427.215 361.814 428.024 362.855L427.236 363.468C427.828 364.229 428.396 365.011 428.937 365.813L429.765 365.253C430.5 366.342 431.186 367.467 431.823 368.623L430.95 369.106C431.415 369.949 431.853 370.81 432.263 371.687L433.166 371.265C433.721 372.454 434.225 373.671 434.675 374.915L433.736 375.255C434.063 376.159 434.36 377.077 434.627 378.008L435.586 377.732C435.947 378.991 436.251 380.273 436.5 381.575L435.521 381.763C435.702 382.705 435.852 383.66 435.97 384.623L436.96 384.502C437.119 385.798 437.22 387.111 437.264 388.44L436.268 388.473C436.283 388.954 436.292 389.438 436.292 389.924C436.292 390.41 436.283 390.894 436.268 391.376L437.264 391.408C437.22 392.737 437.119 394.05 436.96 395.346L435.97 395.226C435.852 396.189 435.702 397.142 435.521 398.085L436.5 398.273C436.251 399.575 435.947 400.857 435.586 402.115L434.627 401.841C434.36 402.772 434.063 403.69 433.736 404.594L434.675 404.933C434.225 406.177 433.721 407.394 433.166 408.583L432.263 408.162C431.853 409.039 431.415 409.9 430.95 410.743L431.823 411.225C431.186 412.38 430.5 413.505 429.765 414.595L428.937 414.036C428.396 414.837 427.828 415.619 427.236 416.381L428.024 416.993C427.216 418.034 426.36 419.036 425.463 419.999L424.733 419.321C424.075 420.028 423.394 420.712 422.69 421.373L423.372 422.099C422.412 423 421.414 423.86 420.376 424.673L419.761 423.887C419.001 424.482 418.221 425.052 417.422 425.596L417.983 426.422C416.897 427.161 415.774 427.851 414.621 428.492L414.137 427.621C413.295 428.089 412.436 428.531 411.561 428.942L411.984 429.843C410.797 430.402 409.581 430.911 408.338 431.363L407.997 430.426C407.094 430.755 406.176 431.054 405.246 431.322L405.522 432.281C404.264 432.645 402.983 432.951 401.682 433.202L401.493 432.225C400.551 432.406 399.597 432.557 398.634 432.676L398.756 433.665C397.46 433.825 396.146 433.928 394.817 433.972L394.785 432.976C394.304 432.992 393.82 433 393.334 433C392.848 433 392.364 432.992 391.883 432.976L391.85 433.972C390.521 433.928 389.208 433.825 387.912 433.665L388.034 432.676C387.071 432.557 386.118 432.406 385.176 432.225L384.986 433.202C383.685 432.951 382.403 432.645 381.146 432.281L381.423 431.322C380.493 431.054 379.575 430.755 378.672 430.426L378.329 431.363C377.087 430.911 375.871 430.403 374.684 429.844L375.108 428.942C374.233 428.531 373.374 428.089 372.532 427.621L372.047 428.492C370.893 427.851 369.77 427.161 368.684 426.422L369.246 425.596C368.447 425.052 367.668 424.482 366.908 423.887L366.291 424.673C365.254 423.86 364.255 423 363.295 422.099L363.979 421.373C363.275 420.712 362.593 420.028 361.935 419.321L361.204 420C360.307 419.037 359.452 418.035 358.644 416.994L359.432 416.381C358.84 415.619 358.273 414.837 357.732 414.036L356.903 414.595C356.168 413.505 355.482 412.38 354.845 411.225L355.718 410.743C355.253 409.9 354.814 409.039 354.405 408.162L353.502 408.583C352.947 407.394 352.442 406.177 351.992 404.933L352.932 404.594C352.605 403.69 352.309 402.772 352.042 401.841L351.082 402.115C350.721 400.857 350.416 399.575 350.167 398.273L351.146 398.085C350.966 397.143 350.817 396.189 350.699 395.226L349.708 395.346C349.549 394.05 349.448 392.737 349.404 391.408L350.4 391.376C350.384 390.894 350.377 390.41 350.377 389.924C350.377 389.438 350.384 388.954 350.4 388.473L349.404 388.44C349.448 387.111 349.549 385.798 349.708 384.502L350.699 384.623C350.817 383.66 350.966 382.705 351.146 381.763L350.167 381.575C350.416 380.273 350.721 378.991 351.082 377.732L352.042 378.008C352.309 377.077 352.605 376.159 352.932 375.255L351.992 374.915C352.442 373.671 352.947 372.454 353.502 371.265L354.405 371.687C354.814 370.81 355.253 369.949 355.718 369.106L354.845 368.623C355.477 367.477 356.156 366.362 356.884 365.281L356.903 365.253L357.732 365.813C358.273 365.011 358.84 364.229 359.432 363.468L358.644 362.854C359.452 361.813 360.308 360.811 361.205 359.848L361.935 360.527C362.593 359.821 363.275 359.137 363.979 358.476L363.295 357.749C364.255 356.848 365.254 355.988 366.291 355.175L366.908 355.962C367.668 355.367 368.447 354.797 369.246 354.253L368.684 353.426C369.77 352.686 370.893 351.997 372.047 351.356L372.532 352.228C373.374 351.759 374.233 351.318 375.108 350.906L374.684 350.004C375.871 349.445 377.087 348.937 378.329 348.484L378.672 349.423C379.575 349.094 380.493 348.795 381.423 348.526L381.146 347.566C382.403 347.203 383.685 346.896 384.986 346.646L385.176 347.624C386.118 347.442 387.071 347.292 388.034 347.173L387.912 346.183C389.208 346.023 390.521 345.92 391.85 345.876L391.883 346.873C392.364 346.857 392.848 346.849 393.334 346.849C393.82 346.849 394.304 346.857 394.785 346.873L394.817 345.876Z" stroke="#30BA78" stroke-width="2" stroke-dasharray="3 4"/>
<path d="M574.808 160.863C576.136 160.907 577.45 161.01 578.746 161.17L578.624 162.16C579.587 162.279 580.541 162.429 581.483 162.611L581.672 161.633C582.973 161.883 584.255 162.19 585.513 162.553L585.236 163.513C586.167 163.782 587.084 164.081 587.987 164.41L588.328 163.471C589.571 163.924 590.787 164.433 591.975 164.992L591.551 165.893C592.426 166.305 593.285 166.746 594.127 167.215L594.611 166.343C595.765 166.984 596.887 167.674 597.974 168.413L597.412 169.24C598.211 169.784 598.992 170.354 599.751 170.949L600.366 170.162C601.404 170.975 602.402 171.835 603.362 172.736L602.681 173.463C603.384 174.123 604.066 174.808 604.724 175.514L605.453 174.835C606.35 175.798 607.206 176.801 608.015 177.842L607.227 178.455C607.818 179.216 608.386 179.998 608.927 180.8L609.755 180.24C610.49 181.329 611.176 182.454 611.813 183.61L610.94 184.093C611.406 184.936 611.844 185.797 612.253 186.674L613.156 186.252C613.711 187.441 614.216 188.658 614.665 189.902L613.727 190.242C614.053 191.146 614.35 192.064 614.617 192.995L615.576 192.72C615.937 193.978 616.241 195.26 616.49 196.562L615.512 196.75C615.692 197.692 615.842 198.647 615.96 199.61L616.95 199.489C617.109 200.785 617.21 202.098 617.254 203.427L616.258 203.46C616.274 203.941 616.282 204.425 616.282 204.911C616.282 205.397 616.274 205.881 616.258 206.363L617.254 206.395C617.21 207.724 617.109 209.037 616.95 210.333L615.96 210.213C615.842 211.176 615.692 212.13 615.512 213.072L616.49 213.26C616.241 214.562 615.937 215.844 615.576 217.102L614.617 216.828C614.35 217.759 614.053 218.677 613.727 219.581L614.665 219.92C614.216 221.164 613.711 222.381 613.156 223.57L612.253 223.149C611.844 224.026 611.406 224.887 610.94 225.73L611.813 226.212C611.176 227.368 610.49 228.493 609.755 229.582L608.927 229.023C608.386 229.824 607.819 230.606 607.227 231.368L608.015 231.98C607.206 233.021 606.35 234.023 605.453 234.986L604.724 234.308C604.066 235.015 603.384 235.699 602.681 236.36L603.362 237.086C602.402 237.987 601.404 238.847 600.366 239.66L599.751 238.874C598.992 239.469 598.211 240.039 597.412 240.583L597.974 241.409C596.887 242.148 595.765 242.838 594.611 243.479L594.127 242.608C593.285 243.076 592.426 243.518 591.551 243.929L591.975 244.83C590.787 245.389 589.571 245.898 588.328 246.35L587.987 245.413C587.084 245.742 586.167 246.041 585.236 246.309L585.513 247.268C584.255 247.632 582.973 247.938 581.672 248.189L581.483 247.212C580.541 247.393 579.587 247.544 578.624 247.663L578.746 248.652C577.45 248.812 576.136 248.915 574.808 248.959L574.775 247.963C574.294 247.979 573.81 247.987 573.324 247.987C572.839 247.987 572.355 247.979 571.873 247.963L571.84 248.959C570.511 248.915 569.198 248.812 567.902 248.652L568.024 247.663C567.061 247.544 566.108 247.393 565.166 247.212L564.977 248.189C563.675 247.938 562.394 247.632 561.136 247.268L561.413 246.309C560.483 246.041 559.565 245.742 558.662 245.413L558.319 246.35C557.077 245.898 555.861 245.39 554.674 244.831L555.099 243.929C554.223 243.518 553.364 243.076 552.522 242.608L552.037 243.479C550.884 242.838 549.761 242.148 548.674 241.409L549.236 240.583C548.437 240.039 547.658 239.469 546.898 238.874L546.281 239.66C545.244 238.847 544.245 237.987 543.285 237.086L543.969 236.36C543.265 235.699 542.583 235.015 541.925 234.308L541.194 234.987C540.297 234.024 539.443 233.022 538.634 231.981L539.422 231.368C538.83 230.606 538.263 229.824 537.723 229.023L536.894 229.582C536.158 228.493 535.473 227.367 534.835 226.212L535.708 225.73C535.243 224.887 534.805 224.026 534.396 223.149L533.492 223.57C532.937 222.381 532.432 221.164 531.982 219.92L532.922 219.581C532.595 218.677 532.299 217.759 532.032 216.828L531.072 217.102C530.712 215.844 530.406 214.562 530.157 213.26L531.137 213.072C530.957 212.13 530.807 211.176 530.689 210.213L529.698 210.333C529.54 209.037 529.438 207.724 529.395 206.395L530.391 206.363C530.375 205.881 530.367 205.397 530.367 204.911C530.367 204.425 530.375 203.941 530.391 203.46L529.395 203.427C529.438 202.098 529.54 200.785 529.698 199.489L530.689 199.61C530.807 198.647 530.956 197.692 531.137 196.75L530.157 196.562C530.406 195.26 530.712 193.978 531.072 192.72L532.032 192.995C532.299 192.064 532.595 191.146 532.922 190.242L531.982 189.902C532.432 188.658 532.937 187.441 533.492 186.252L534.396 186.674C534.805 185.797 535.243 184.936 535.708 184.093L534.835 183.61C535.467 182.464 536.146 181.349 536.874 180.268L536.894 180.24L537.723 180.8C538.263 179.998 538.83 179.216 539.422 178.455L538.634 177.841C539.443 176.8 540.298 175.798 541.195 174.835L541.925 175.514C542.583 174.808 543.265 174.124 543.969 173.463L543.285 172.736C544.245 171.835 545.244 170.975 546.281 170.162L546.898 170.949C547.658 170.354 548.437 169.784 549.236 169.24L548.674 168.413C549.761 167.673 550.884 166.984 552.037 166.343L552.522 167.215C553.364 166.746 554.223 166.305 555.099 165.893L554.674 164.991C555.861 164.432 557.077 163.924 558.319 163.471L558.662 164.41C559.565 164.081 560.483 163.782 561.413 163.513L561.136 162.553C562.394 162.19 563.675 161.884 564.977 161.633L565.166 162.611C566.108 162.43 567.061 162.279 568.024 162.16L567.902 161.17C569.198 161.01 570.512 160.907 571.84 160.863L571.873 161.86C572.355 161.844 572.839 161.836 573.324 161.836C573.81 161.836 574.294 161.844 574.775 161.86L574.808 160.863Z" stroke="#30BA78" stroke-width="2" stroke-dasharray="3 4"/>
<path d="M666.808 173.863C668.136 173.907 669.45 174.01 670.746 174.17L670.624 175.16C671.587 175.279 672.541 175.429 673.483 175.611L673.672 174.633C674.973 174.883 676.255 175.19 677.513 175.553L677.236 176.513C678.167 176.782 679.084 177.081 679.987 177.41L680.328 176.471C681.571 176.924 682.787 177.433 683.975 177.992L683.551 178.893C684.426 179.305 685.285 179.746 686.127 180.215L686.611 179.343C687.765 179.984 688.887 180.674 689.974 181.413L689.412 182.24C690.211 182.784 690.992 183.354 691.751 183.949L692.366 183.162C693.404 183.975 694.402 184.835 695.362 185.736L694.681 186.463C695.384 187.123 696.066 187.808 696.724 188.514L697.453 187.835C698.35 188.798 699.206 189.801 700.015 190.842L699.227 191.455C699.818 192.216 700.386 192.998 700.927 193.8L701.755 193.24C702.49 194.329 703.176 195.454 703.813 196.61L702.94 197.093C703.406 197.936 703.844 198.797 704.253 199.674L705.156 199.252C705.711 200.441 706.216 201.658 706.665 202.902L705.727 203.242C706.053 204.146 706.35 205.064 706.617 205.995L707.576 205.72C707.937 206.978 708.241 208.26 708.49 209.562L707.512 209.75C707.692 210.692 707.842 211.647 707.96 212.61L708.95 212.489C709.109 213.785 709.21 215.098 709.254 216.427L708.258 216.46C708.274 216.941 708.282 217.425 708.282 217.911C708.282 218.397 708.274 218.881 708.258 219.363L709.254 219.395C709.21 220.724 709.109 222.037 708.95 223.333L707.96 223.213C707.842 224.176 707.692 225.13 707.512 226.072L708.49 226.26C708.241 227.562 707.937 228.844 707.576 230.102L706.617 229.828C706.35 230.759 706.053 231.677 705.727 232.581L706.665 232.92C706.216 234.164 705.711 235.381 705.156 236.57L704.253 236.149C703.844 237.026 703.406 237.887 702.94 238.73L703.813 239.212C703.176 240.368 702.49 241.493 701.755 242.582L700.927 242.023C700.386 242.824 699.819 243.606 699.227 244.368L700.015 244.98C699.206 246.021 698.35 247.023 697.453 247.986L696.724 247.308C696.066 248.015 695.384 248.699 694.681 249.36L695.362 250.086C694.402 250.987 693.404 251.847 692.366 252.66L691.751 251.874C690.992 252.469 690.211 253.039 689.412 253.583L689.974 254.409C688.887 255.148 687.765 255.838 686.611 256.479L686.127 255.608C685.285 256.076 684.426 256.518 683.551 256.929L683.975 257.83C682.787 258.389 681.571 258.898 680.328 259.35L679.987 258.413C679.084 258.742 678.167 259.041 677.236 259.309L677.513 260.268C676.255 260.632 674.973 260.938 673.672 261.189L673.483 260.212C672.541 260.393 671.587 260.544 670.624 260.663L670.746 261.652C669.45 261.812 668.136 261.915 666.808 261.959L666.775 260.963C666.294 260.979 665.81 260.987 665.324 260.987C664.839 260.987 664.355 260.979 663.873 260.963L663.84 261.959C662.511 261.915 661.198 261.812 659.902 261.652L660.024 260.663C659.061 260.544 658.108 260.393 657.166 260.212L656.977 261.189C655.675 260.938 654.394 260.632 653.136 260.268L653.413 259.309C652.483 259.041 651.565 258.742 650.662 258.413L650.319 259.35C649.077 258.898 647.861 258.39 646.674 257.831L647.099 256.929C646.223 256.518 645.364 256.076 644.522 255.608L644.037 256.479C642.884 255.838 641.761 255.148 640.674 254.409L641.236 253.583C640.437 253.039 639.658 252.469 638.898 251.874L638.281 252.66C637.244 251.847 636.245 250.987 635.285 250.086L635.969 249.36C635.265 248.699 634.583 248.015 633.925 247.308L633.194 247.987C632.297 247.024 631.443 246.022 630.634 244.981L631.422 244.368C630.83 243.606 630.263 242.824 629.723 242.023L628.894 242.582C628.158 241.493 627.473 240.367 626.835 239.212L627.708 238.73C627.243 237.887 626.805 237.026 626.396 236.149L625.492 236.57C624.937 235.381 624.432 234.164 623.982 232.92L624.922 232.581C624.595 231.677 624.299 230.759 624.032 229.828L623.072 230.102C622.712 228.844 622.406 227.562 622.157 226.26L623.137 226.072C622.957 225.13 622.807 224.176 622.689 223.213L621.698 223.333C621.54 222.037 621.438 220.724 621.395 219.395L622.391 219.363C622.375 218.881 622.367 218.397 622.367 217.911C622.367 217.425 622.375 216.941 622.391 216.46L621.395 216.427C621.438 215.098 621.54 213.785 621.698 212.489L622.689 212.61C622.807 211.647 622.956 210.692 623.137 209.75L622.157 209.562C622.406 208.26 622.712 206.978 623.072 205.72L624.032 205.995C624.299 205.064 624.595 204.146 624.922 203.242L623.982 202.902C624.432 201.658 624.937 200.441 625.492 199.252L626.396 199.674C626.805 198.797 627.243 197.936 627.708 197.093L626.835 196.61C627.467 195.464 628.146 194.349 628.874 193.268L628.894 193.24L629.723 193.8C630.263 192.998 630.83 192.216 631.422 191.455L630.634 190.841C631.443 189.8 632.298 188.798 633.195 187.835L633.925 188.514C634.583 187.808 635.265 187.124 635.969 186.463L635.285 185.736C636.245 184.835 637.244 183.975 638.281 183.162L638.898 183.949C639.658 183.354 640.437 182.784 641.236 182.24L640.674 181.413C641.761 180.673 642.884 179.984 644.037 179.343L644.522 180.215C645.364 179.746 646.223 179.305 647.099 178.893L646.674 177.991C647.861 177.432 649.077 176.924 650.319 176.471L650.662 177.41C651.565 177.081 652.483 176.782 653.413 176.513L653.136 175.553C654.394 175.19 655.675 174.884 656.977 174.633L657.166 175.611C658.108 175.43 659.061 175.279 660.024 175.16L659.902 174.17C661.198 174.01 662.512 173.907 663.84 173.863L663.873 174.86C664.355 174.844 664.839 174.836 665.324 174.836C665.81 174.836 666.294 174.844 666.775 174.86L666.808 173.863Z" stroke="#30BA78" stroke-width="2" stroke-dasharray="3 4"/>
<path d="M286.88 86.1225C288.209 86.1667 289.522 86.2693 290.818 86.4291L290.696 87.4194C291.66 87.5382 292.613 87.6889 293.556 87.8705L293.744 86.892C295.046 87.1429 296.327 87.4497 297.585 87.8129L297.309 88.7729C298.239 89.0415 299.156 89.3405 300.06 89.6694L300.4 88.7309C301.643 89.1834 302.859 89.6925 304.047 90.2514L303.623 91.1528C304.498 91.5646 305.357 92.0059 306.199 92.4741L306.684 91.602C307.837 92.2433 308.959 92.933 310.046 93.6723L309.484 94.4995C310.283 95.0431 311.064 95.6134 311.823 96.2084L312.438 95.4213C313.476 96.2342 314.475 97.0943 315.435 97.9955L314.753 98.7221C315.457 99.3829 316.138 100.067 316.796 100.774L317.525 100.094C318.423 101.057 319.278 102.06 320.087 103.101L319.299 103.714C319.891 104.476 320.458 105.258 320.999 106.059L321.827 105.499C322.562 106.589 323.248 107.714 323.886 108.87L323.013 109.352C323.478 110.195 323.916 111.056 324.325 111.933L325.229 111.511C325.783 112.7 326.288 113.918 326.737 115.162L325.799 115.501C326.125 116.405 326.423 117.323 326.689 118.254L327.648 117.979C328.009 119.238 328.313 120.52 328.562 121.822L327.584 122.009C327.764 122.952 327.914 123.906 328.032 124.87L329.022 124.748C329.181 126.044 329.282 127.358 329.326 128.686L328.33 128.719C328.346 129.201 328.354 129.685 328.354 130.17C328.354 130.656 328.346 131.141 328.33 131.622L329.326 131.655C329.282 132.983 329.181 134.296 329.022 135.592L328.032 135.472C327.914 136.436 327.764 137.389 327.584 138.331L328.562 138.519C328.314 139.821 328.009 141.103 327.648 142.362L326.689 142.087C326.423 143.018 326.125 143.936 325.799 144.84L326.737 145.179C326.288 146.423 325.783 147.64 325.229 148.83L324.325 148.409C323.916 149.285 323.478 150.146 323.013 150.99L323.886 151.471C323.248 152.627 322.562 153.752 321.827 154.841L320.999 154.283C320.458 155.084 319.891 155.866 319.299 156.627L320.087 157.24C319.278 158.28 318.422 159.283 317.525 160.246L316.796 159.568C316.138 160.274 315.457 160.959 314.753 161.62L315.435 162.345C314.475 163.246 313.476 164.106 312.438 164.919L311.823 164.133C311.064 164.728 310.283 165.299 309.484 165.842L310.046 166.668C308.959 167.408 307.837 168.097 306.684 168.739L306.199 167.868C305.357 168.336 304.498 168.777 303.623 169.189L304.047 170.089C302.859 170.648 301.643 171.157 300.4 171.61L300.06 170.672C299.156 171.001 298.239 171.3 297.309 171.569L297.585 172.528C296.327 172.891 295.046 173.198 293.744 173.449L293.556 172.471C292.613 172.653 291.66 172.803 290.696 172.922L290.818 173.912C289.522 174.071 288.209 174.174 286.88 174.218L286.848 173.222C286.366 173.238 285.882 173.247 285.396 173.247C284.911 173.247 284.427 173.238 283.945 173.222L283.912 174.218C282.584 174.174 281.271 174.071 279.975 173.912L280.097 172.922C279.134 172.804 278.18 172.653 277.238 172.471L277.049 173.449C275.747 173.198 274.466 172.891 273.208 172.528L273.485 171.569C272.555 171.3 271.638 171.001 270.734 170.672L270.392 171.61C269.149 171.157 267.933 170.649 266.746 170.09L267.171 169.189C266.296 168.777 265.437 168.336 264.595 167.868L264.109 168.739C262.956 168.097 261.833 167.408 260.746 166.668L261.309 165.842C260.51 165.299 259.73 164.728 258.971 164.133L258.354 164.919C257.316 164.106 256.317 163.246 255.357 162.345L256.041 161.62C255.337 160.959 254.655 160.274 253.997 159.568L253.267 160.247C252.37 159.284 251.515 158.281 250.706 157.241L251.494 156.627C250.902 155.866 250.336 155.084 249.795 154.283L248.966 154.841C248.231 153.752 247.545 152.627 246.907 151.471L247.78 150.99C247.315 150.146 246.877 149.285 246.468 148.409L245.564 148.83C245.009 147.64 244.504 146.423 244.055 145.179L244.994 144.84C244.668 143.936 244.371 143.018 244.104 142.087L243.145 142.362C242.784 141.103 242.478 139.821 242.229 138.519L243.209 138.331C243.029 137.389 242.88 136.435 242.762 135.472L241.771 135.592C241.612 134.296 241.511 132.983 241.467 131.655L242.463 131.622C242.447 131.141 242.439 130.656 242.439 130.17C242.439 129.685 242.447 129.201 242.463 128.719L241.467 128.686C241.511 127.358 241.612 126.044 241.771 124.748L242.762 124.87C242.88 123.906 243.029 122.952 243.209 122.009L242.229 121.822C242.479 120.52 242.784 119.238 243.145 117.979L244.104 118.254C244.371 117.323 244.668 116.405 244.994 115.501L244.055 115.162C244.504 113.917 245.009 112.7 245.564 111.511L246.468 111.933C246.877 111.056 247.315 110.195 247.78 109.352L246.907 108.87C247.539 107.724 248.218 106.608 248.946 105.528L248.966 105.499L249.795 106.059C250.336 105.258 250.902 104.476 251.494 103.714L250.706 103.1C251.515 102.059 252.371 101.057 253.268 100.094L253.997 100.774C254.655 100.067 255.337 99.383 256.041 98.7221L255.357 97.9955C256.317 97.0943 257.316 96.2342 258.354 95.4213L258.971 96.2084C259.73 95.6134 260.51 95.0431 261.309 94.4995L260.746 93.6723C261.833 92.9329 262.956 92.2434 264.109 91.602L264.595 92.4741C265.437 92.0059 266.296 91.5646 267.171 91.1528L266.746 90.2504C267.933 89.6917 269.149 89.1833 270.392 88.7309L270.734 89.6694C271.638 89.3405 272.555 89.0415 273.485 88.7729L273.208 87.8129C274.466 87.4496 275.747 87.1429 277.049 86.892L277.238 87.8705C278.18 87.6889 279.134 87.5382 280.097 87.4194L279.975 86.4291C281.271 86.2693 282.584 86.1667 283.912 86.1225L283.945 87.1196C284.427 87.1035 284.911 87.0952 285.396 87.0952C285.882 87.0952 286.366 87.1035 286.848 87.1196L286.88 86.1225Z" stroke="#30BA78" stroke-width="2" stroke-dasharray="3 4"/>
<path d="M35.8799 117.122C37.2085 117.167 38.5221 117.269 39.8184 117.429L39.6963 118.419C40.6596 118.538 41.6133 118.689 42.5557 118.871L42.7441 117.892C44.0457 118.143 45.327 118.45 46.585 118.813L46.3086 119.773C47.2389 120.042 48.1564 120.341 49.0596 120.669L49.4004 119.731C50.6433 120.183 51.8591 120.693 53.0469 121.251L52.623 122.153C53.4983 122.565 54.3574 123.006 55.1992 123.474L55.6836 122.602C56.8368 123.243 57.9592 123.933 59.0459 124.672L58.4844 125.499C59.2834 126.043 60.0638 126.613 60.8232 127.208L61.4385 126.421C62.476 127.234 63.4747 128.094 64.4346 128.996L63.7529 129.722C64.4566 130.383 65.1378 131.067 65.7959 131.774L66.5254 131.094C67.4226 132.057 68.2779 133.06 69.0869 134.101L68.2988 134.714C68.8908 135.476 69.4583 136.258 69.999 137.059L70.8271 136.499C71.5623 137.589 72.2482 138.714 72.8857 139.87L72.0127 140.352C72.4779 141.195 72.916 142.056 73.3252 142.933L74.2285 142.511C74.7835 143.7 75.288 144.918 75.7373 146.162L74.7988 146.501C75.1253 147.405 75.4228 148.323 75.6895 149.254L76.6484 148.979C77.009 150.238 77.3135 151.52 77.5625 152.822L76.584 153.009C76.7642 153.952 76.9143 154.906 77.0322 155.87L78.0225 155.748C78.181 157.044 78.2823 158.358 78.3262 159.686L77.3301 159.719C77.346 160.201 77.3545 160.685 77.3545 161.17C77.3545 161.656 77.346 162.141 77.3301 162.622L78.3262 162.655C78.2823 163.983 78.181 165.296 78.0225 166.592L77.0322 166.472C76.9143 167.436 76.7642 168.389 76.584 169.331L77.5625 169.519C77.3135 170.821 77.009 172.103 76.6484 173.362L75.6895 173.087C75.4228 174.018 75.1253 174.936 74.7988 175.84L75.7373 176.179C75.288 177.423 74.7835 178.64 74.2285 179.83L73.3252 179.409C72.916 180.285 72.4779 181.146 72.0127 181.99L72.8857 182.471C72.2482 183.627 71.5623 184.752 70.8271 185.841L69.999 185.283C69.4583 186.084 68.8908 186.866 68.2988 187.627L69.0869 188.24C68.278 189.28 67.4224 190.283 66.5254 191.246L65.7959 190.568C65.1378 191.274 64.4566 191.959 63.7529 192.62L64.4346 193.345C63.4747 194.246 62.476 195.106 61.4385 195.919L60.8232 195.133C60.0638 195.728 59.2834 196.299 58.4844 196.842L59.0459 197.668C57.9592 198.408 56.8368 199.097 55.6836 199.739L55.1992 198.868C54.3574 199.336 53.4983 199.777 52.623 200.189L53.0469 201.089C51.8591 201.648 50.6433 202.157 49.4004 202.61L49.0596 201.672C48.1564 202.001 47.2389 202.3 46.3086 202.569L46.585 203.528C45.327 203.891 44.0457 204.198 42.7441 204.449L42.5557 203.471C41.6133 203.653 40.6596 203.803 39.6963 203.922L39.8184 204.912C38.5221 205.071 37.2086 205.174 35.8799 205.218L35.8477 204.222C35.366 204.238 34.8821 204.247 34.3965 204.247C33.9109 204.247 33.4269 204.238 32.9453 204.222L32.9121 205.218C31.5838 205.174 30.2706 205.071 28.9746 204.912L29.0967 203.922C28.1336 203.804 27.1804 203.653 26.2383 203.471L26.0488 204.449C24.7473 204.198 23.466 203.891 22.208 203.528L22.4854 202.569C21.5551 202.3 20.6376 202.001 19.7344 201.672L19.3916 202.61C18.1491 202.157 16.9335 201.649 15.7461 201.09L16.1709 200.189C15.2957 199.777 14.4366 199.336 13.5947 198.868L13.1094 199.739C11.9559 199.097 10.833 198.408 9.74609 197.668L10.3086 196.842C9.50957 196.299 8.73008 195.728 7.9707 195.133L7.35352 195.919C6.31602 195.106 5.31723 194.246 4.35742 193.345L5.04102 192.62C4.33724 191.959 3.65522 191.274 2.99707 190.568L2.2666 191.247C1.36976 190.284 0.514817 189.281 -0.293945 188.241L0.494141 187.627C-0.0977157 186.866 -0.664388 186.084 -1.20508 185.283L-2.03418 185.841C-2.76932 184.752 -3.45522 183.627 -4.09277 182.471L-3.21973 181.99C-3.68495 181.146 -4.12301 180.285 -4.53223 179.409L-5.43555 179.83C-5.99054 178.64 -6.49599 177.423 -6.94531 176.179L-6.00586 175.84C-6.33231 174.936 -6.62884 174.018 -6.89551 173.087L-7.85547 173.362C-8.21605 172.103 -8.52151 170.821 -8.77051 169.519L-7.79102 169.331C-7.97122 168.389 -8.1204 167.435 -8.23828 166.472L-9.22949 166.592C-9.38803 165.296 -9.48938 163.983 -9.5332 162.655L-8.53711 162.622C-8.55301 162.141 -8.56055 161.656 -8.56055 161.17C-8.56054 160.685 -8.55301 160.201 -8.53711 159.719L-9.5332 159.686C-9.48935 158.358 -9.38806 157.044 -9.22949 155.748L-8.23828 155.87C-8.12038 154.906 -7.97127 153.952 -7.79102 153.009L-8.77051 152.822C-8.52149 151.52 -8.21607 150.238 -7.85547 148.979L-6.89551 149.254C-6.62884 148.323 -6.33231 147.405 -6.00586 146.501L-6.94531 146.162C-6.49597 144.917 -5.99056 143.7 -5.43555 142.511L-4.53223 142.933C-4.12302 142.056 -3.68494 141.195 -3.21973 140.352L-4.09277 139.87C-3.46077 138.724 -2.78163 137.608 -2.05371 136.528L-2.03418 136.499L-1.20508 137.059C-0.664388 136.258 -0.0977154 135.476 0.494141 134.714L-0.293945 134.1C0.51496 133.059 1.37056 132.057 2.26758 131.094L2.99707 131.774C3.65523 131.067 4.33723 130.383 5.04102 129.722L4.35742 128.996C5.31723 128.094 6.31602 127.234 7.35352 126.421L7.9707 127.208C8.73007 126.613 9.50958 126.043 10.3086 125.499L9.74609 124.672C10.8329 123.933 11.956 123.243 13.1094 122.602L13.5947 123.474C14.4366 123.006 15.2957 122.565 16.1709 122.153L15.7461 121.25C16.9335 120.692 18.1491 120.183 19.3916 119.731L19.7344 120.669C20.6376 120.341 21.5551 120.042 22.4854 119.773L22.208 118.813C23.466 118.45 24.7473 118.143 26.0488 117.892L26.2383 118.871C27.1804 118.689 28.1336 118.538 29.0967 118.419L28.9746 117.429C30.2705 117.269 31.5838 117.167 32.9121 117.122L32.9453 118.12C33.4269 118.104 33.9109 118.095 34.3965 118.095C34.8821 118.095 35.366 118.104 35.8477 118.12L35.8799 117.122Z" stroke="#30BA78" stroke-width="2" stroke-dasharray="3 4"/>
<path d="M494.005 121.345C495.334 121.389 496.647 121.492 497.943 121.652L497.821 122.642C498.785 122.761 499.738 122.911 500.681 123.093L500.869 122.115C502.171 122.365 503.452 122.672 504.71 123.035L504.434 123.995C505.364 124.264 506.281 124.563 507.185 124.892L507.525 123.953C508.768 124.406 509.984 124.915 511.172 125.474L510.748 126.375C511.623 126.787 512.482 127.228 513.324 127.697L513.809 126.825C514.962 127.466 516.084 128.156 517.171 128.895L516.609 129.722C517.408 130.266 518.189 130.836 518.948 131.431L519.563 130.644C520.601 131.457 521.6 132.317 522.56 133.218L521.878 133.945C522.582 134.605 523.263 135.29 523.921 135.996L524.65 135.317C525.548 136.28 526.403 137.283 527.212 138.324L526.424 138.937C527.016 139.698 527.583 140.48 528.124 141.282L528.952 140.722C529.687 141.811 530.373 142.936 531.011 144.092L530.138 144.575C530.603 145.418 531.041 146.279 531.45 147.156L532.354 146.734C532.908 147.923 533.413 149.14 533.862 150.384L532.924 150.724C533.25 151.628 533.548 152.546 533.814 153.477L534.773 153.201C535.134 154.46 535.438 155.742 535.688 157.044L534.709 157.232C534.889 158.174 535.039 159.129 535.157 160.092L536.147 159.971C536.306 161.267 536.407 162.58 536.451 163.909L535.455 163.942C535.471 164.423 535.479 164.907 535.479 165.393C535.479 165.879 535.471 166.363 535.455 166.845L536.451 166.877C536.407 168.206 536.306 169.519 536.147 170.815L535.157 170.695C535.039 171.658 534.889 172.611 534.709 173.554L535.688 173.742C535.439 175.044 535.134 176.326 534.773 177.584L533.814 177.31C533.548 178.241 533.25 179.159 532.924 180.063L533.862 180.402C533.413 181.646 532.908 182.863 532.354 184.052L531.45 183.631C531.041 184.508 530.603 185.369 530.138 186.212L531.011 186.694C530.373 187.849 529.687 188.974 528.952 190.064L528.124 189.505C527.583 190.306 527.016 191.088 526.424 191.85L527.212 192.462C526.403 193.503 525.547 194.505 524.65 195.468L523.921 194.79C523.263 195.497 522.582 196.181 521.878 196.842L522.56 197.568C521.6 198.469 520.601 199.329 519.563 200.142L518.948 199.356C518.189 199.951 517.408 200.521 516.609 201.065L517.171 201.891C516.084 202.63 514.962 203.32 513.809 203.961L513.324 203.09C512.482 203.558 511.623 204 510.748 204.411L511.172 205.312C509.984 205.871 508.768 206.38 507.525 206.832L507.185 205.895C506.281 206.224 505.364 206.523 504.434 206.791L504.71 207.75C503.452 208.114 502.171 208.42 500.869 208.671L500.681 207.694C499.738 207.875 498.785 208.026 497.821 208.145L497.943 209.134C496.647 209.294 495.334 209.397 494.005 209.441L493.973 208.445C493.491 208.461 493.007 208.469 492.521 208.469C492.036 208.469 491.552 208.461 491.07 208.445L491.037 209.441C489.709 209.397 488.396 209.294 487.1 209.134L487.222 208.145C486.259 208.026 485.305 207.875 484.363 207.694L484.174 208.671C482.872 208.42 481.591 208.114 480.333 207.75L480.61 206.791C479.68 206.523 478.763 206.224 477.859 205.895L477.517 206.832C476.274 206.38 475.058 205.872 473.871 205.313L474.296 204.411C473.421 204 472.562 203.558 471.72 203.09L471.234 203.961C470.081 203.32 468.958 202.63 467.871 201.891L468.434 201.065C467.635 200.521 466.855 199.951 466.096 199.356L465.479 200.142C464.441 199.329 463.442 198.469 462.482 197.568L463.166 196.842C462.462 196.181 461.78 195.497 461.122 194.79L460.392 195.469C459.495 194.506 458.64 193.504 457.831 192.463L458.619 191.85C458.027 191.088 457.461 190.306 456.92 189.505L456.091 190.064C455.356 188.974 454.67 187.849 454.032 186.694L454.905 186.212C454.44 185.369 454.002 184.508 453.593 183.631L452.689 184.052C452.134 182.863 451.629 181.646 451.18 180.402L452.119 180.063C451.793 179.159 451.496 178.241 451.229 177.31L450.27 177.584C449.909 176.326 449.603 175.044 449.354 173.742L450.334 173.554C450.154 172.612 450.005 171.658 449.887 170.695L448.896 170.815C448.737 169.519 448.636 168.206 448.592 166.877L449.588 166.845C449.572 166.363 449.564 165.879 449.564 165.393C449.564 164.907 449.572 164.423 449.588 163.942L448.592 163.909C448.636 162.58 448.737 161.267 448.896 159.971L449.887 160.092C450.005 159.129 450.154 158.174 450.334 157.232L449.354 157.044C449.604 155.742 449.909 154.46 450.27 153.201L451.229 153.477C451.496 152.546 451.793 151.628 452.119 150.724L451.18 150.384C451.629 149.14 452.134 147.923 452.689 146.734L453.593 147.156C454.002 146.279 454.44 145.418 454.905 144.575L454.032 144.092C454.664 142.946 455.343 141.831 456.071 140.75L456.091 140.722L456.92 141.282C457.461 140.48 458.027 139.698 458.619 138.937L457.831 138.323C458.64 137.282 459.496 136.28 460.393 135.317L461.122 135.996C461.78 135.29 462.462 134.605 463.166 133.945L462.482 133.218C463.442 132.317 464.441 131.457 465.479 130.644L466.096 131.431C466.855 130.836 467.635 130.266 468.434 129.722L467.871 128.895C468.958 128.155 470.081 127.466 471.234 126.825L471.72 127.697C472.562 127.228 473.421 126.787 474.296 126.375L473.871 125.473C475.058 124.914 476.274 124.406 477.517 123.953L477.859 124.892C478.763 124.563 479.68 124.264 480.61 123.995L480.333 123.035C481.591 122.672 482.872 122.365 484.174 122.115L484.363 123.093C485.305 122.911 486.259 122.761 487.222 122.642L487.1 121.652C488.396 121.492 489.709 121.389 491.037 121.345L491.07 122.342C491.552 122.326 492.036 122.318 492.521 122.318C493.007 122.318 493.491 122.326 493.973 122.342L494.005 121.345Z" stroke="#30BA78" stroke-width="2" stroke-dasharray="3 4"/>
<path opacity="0.375052" d="M1.49869 345.084H759.501" stroke="#0B322C" stroke-width="0.5" stroke-linecap="square"/>
<path opacity="0.375052" d="M1.49869 410.948H759.501" stroke="#0B322C" stroke-width="0.5" stroke-linecap="square"/>
<path opacity="0.375052" d="M1.49869 186.071H759.501" stroke="#0B322C" stroke-width="0.5" stroke-linecap="square"/>
<path opacity="0.375052" d="M1.49869 117.385H759.501" stroke="#0B322C" stroke-width="0.5" stroke-linecap="square"/>
<path opacity="0.375052" d="M1.49869 107.976H759.501" stroke="#0B322C" stroke-width="0.5" stroke-linecap="square"/>
</g>
<defs>
<clipPath id="clip0_3_1112">
<rect width="760" height="506" fill="white"/>
</clipPath>
<clipPath id="clip1_3_1112">
<rect width="1330" height="394.815" fill="white" transform="translate(-342.896 39.185)"/>
</clipPath>
</defs>
</svg>
