<svg width="760" height="506" viewBox="0 0 760 506" fill="none" xmlns="http://www.w3.org/2000/svg">
<g clip-path="url(#clip0_3_414)">
<rect width="760" height="506" fill="#0B322C"/>
<g clip-path="url(#clip1_3_414)">
<rect width="760" height="506" fill="#0B322C"/>
<path d="M173.023 286.184C148.686 286.184 131.173 276.404 118.435 261.62L138.223 241.832C150.961 254.341 161.651 259.345 174.388 259.345C190.309 259.345 199.862 251.157 199.862 239.785C199.862 206.122 122.075 225.228 122.075 169.731C122.075 139.48 144.592 120.602 178.709 120.602C199.862 120.602 217.83 128.79 228.975 141.527L208.505 161.997C199.18 152.217 190.309 147.441 178.709 147.441C163.925 147.441 153.917 155.174 153.917 166.774C153.917 198.617 232.842 177.691 232.842 235.008C232.842 265.941 208.505 286.184 173.023 286.184ZM314.962 286.184C276.751 286.184 251.959 267.306 251.959 227.275V123.786H284.256V224.773C284.256 246.608 296.539 256.389 314.962 256.389C333.613 256.389 345.667 246.608 345.667 224.773V123.786H377.965V227.275C377.965 267.306 352.718 286.184 314.962 286.184ZM450.749 286.184C426.412 286.184 408.899 276.404 396.161 261.62L415.95 241.832C428.687 254.341 439.377 259.345 452.114 259.345C468.035 259.345 477.588 251.157 477.588 239.785C477.588 206.122 399.801 225.228 399.801 169.731C399.801 139.48 422.318 120.602 456.435 120.602C477.588 120.602 495.556 128.79 506.701 141.527L486.231 161.997C476.906 152.217 468.035 147.441 456.435 147.441C441.651 147.441 431.643 155.174 431.643 166.774C431.643 198.617 510.568 177.691 510.568 235.008C510.568 265.941 486.231 286.184 450.749 286.184ZM556.979 283C541.057 283 529.685 271.628 529.685 255.934V150.852C529.685 135.159 541.057 123.786 556.979 123.786H636.358V152.899H567.896C564.257 152.899 561.528 155.856 561.528 159.495V189.064H631.582V216.813H561.528V247.291C561.528 250.93 564.257 253.887 567.896 253.887H636.358V283H556.979Z" fill="white"/>
<path d="M122.398 342L129.027 324.556H131.594L138.223 342H136.03L134.26 337.24H126.361L124.566 342H122.398ZM127.033 335.421H133.563L130.323 326.674L127.033 335.421ZM146.135 342V331.758H143.942V330.013H146.135V326.998C146.135 325.054 147.481 323.808 149.499 323.808H151.493V325.528H149.474C148.727 325.528 148.154 326.076 148.154 326.849V330.013H151.493V331.758H148.154V342H146.135ZM153.78 342V330.013H155.724V331.932C156.322 330.412 157.568 329.964 159.039 329.964H160.06V331.957H158.889C156.945 331.957 155.799 332.904 155.799 334.898V342H153.78ZM163.316 327.372V324.481H165.509V327.372H163.316ZM163.391 342V331.758H161.073V330.013H165.409V342H163.391ZM174.345 342.249C170.781 342.249 168.339 339.732 168.339 336.069V335.82C168.339 332.356 170.582 329.764 173.946 329.764C177.385 329.764 179.503 332.481 179.03 336.617H170.357C170.582 338.835 172.102 340.405 174.444 340.405C175.69 340.405 176.662 340.106 177.385 339.458L178.531 340.704C177.609 341.701 176.089 342.249 174.345 342.249ZM173.971 331.509C171.952 331.509 170.657 332.879 170.382 334.973H177.111C177.086 332.78 175.79 331.509 173.971 331.509ZM181.913 342V330.013H183.857V331.932C184.828 330.263 186.548 329.764 187.819 329.764C190.485 329.764 192.354 331.509 192.354 334.948V342H190.336V335.247C190.336 332.68 189.065 331.608 187.295 331.608C185.451 331.608 183.931 332.879 183.931 335.272V342H181.913ZM200.74 342.249C197.451 342.249 195.108 339.757 195.108 336.069V335.845C195.108 332.256 197.501 329.764 200.74 329.764C202.51 329.764 203.98 330.587 204.902 331.957V323.808H206.921V342H205.101V339.832C204.154 341.352 202.609 342.249 200.74 342.249ZM201.015 340.455C203.332 340.455 205.027 338.711 205.027 336.019C205.027 333.328 203.332 331.559 201.015 331.559C198.772 331.559 197.127 333.253 197.127 335.845V336.069C197.127 338.735 198.772 340.455 201.015 340.455ZM213.868 342C211.924 342 210.629 340.804 210.629 338.935V325.528H208.436V323.808H212.647V338.96C212.647 339.732 213.22 340.281 213.968 340.281H215.114V342H213.868ZM215.54 346.984V345.265H217.932C218.63 345.265 219.003 344.716 219.278 344.043L220.15 342.125L215.216 330.013H217.434L221.221 339.658L224.835 330.013H227.053L221.321 344.118C220.773 345.489 219.975 346.984 217.832 346.984H215.54ZM240.756 342.249C238.887 342.249 237.342 341.352 236.42 339.857V342H234.576V323.808H236.594V331.957C237.516 330.587 238.987 329.764 240.756 329.764C243.996 329.764 246.388 332.256 246.388 335.845V336.069C246.388 339.757 244.02 342.249 240.756 342.249ZM240.457 340.455C242.7 340.455 244.369 338.735 244.369 336.069V335.845C244.369 333.253 242.7 331.559 240.457 331.559C238.164 331.559 236.47 333.328 236.47 336.019C236.47 338.711 238.164 340.455 240.457 340.455ZM252.538 342C250.594 342 249.298 340.804 249.298 338.935V325.528H247.105V323.808H251.317V338.96C251.317 339.732 251.89 340.281 252.638 340.281H253.784V342H252.538ZM261.054 342.249C257.49 342.249 255.048 339.732 255.048 336.069V335.82C255.048 332.356 257.291 329.764 260.655 329.764C264.094 329.764 266.212 332.481 265.739 336.617H257.066C257.291 338.835 258.811 340.405 261.153 340.405C262.399 340.405 263.371 340.106 264.094 339.458L265.24 340.704C264.318 341.701 262.798 342.249 261.054 342.249ZM260.68 331.509C258.661 331.509 257.365 332.879 257.091 334.973H263.82C263.795 332.78 262.499 331.509 260.68 331.509ZM268.622 342V330.013H270.565V331.932C271.537 330.263 273.257 329.764 274.528 329.764C277.194 329.764 279.063 331.509 279.063 334.948V342H277.045V335.247C277.045 332.68 275.774 331.608 274.004 331.608C272.16 331.608 270.64 332.879 270.64 335.272V342H268.622ZM287.449 342.249C284.16 342.249 281.817 339.757 281.817 336.069V335.845C281.817 332.256 284.21 329.764 287.449 329.764C289.219 329.764 290.689 330.587 291.611 331.957V323.808H293.63V342H291.81V339.832C290.863 341.352 289.318 342.249 287.449 342.249ZM287.723 340.455C290.041 340.455 291.736 338.711 291.736 336.019C291.736 333.328 290.041 331.559 287.723 331.559C285.481 331.559 283.836 333.253 283.836 335.845V336.069C283.836 338.735 285.481 340.455 287.723 340.455ZM308.337 342.249C304.923 342.249 302.381 339.707 302.381 336.069V335.845C302.381 332.281 304.923 329.764 308.337 329.764C311.776 329.764 314.293 332.281 314.293 335.795V336.069C314.293 339.707 311.776 342.249 308.337 342.249ZM308.337 340.455C310.68 340.455 312.299 338.661 312.299 336.069V335.795C312.299 333.303 310.68 331.559 308.337 331.559C306.02 331.559 304.375 333.328 304.375 335.845V336.069C304.375 338.661 306.02 340.455 308.337 340.455ZM317.874 342V331.758H315.681V330.013H317.874V326.998C317.874 325.054 319.219 323.808 321.238 323.808H323.232V325.528H321.213C320.465 325.528 319.892 326.076 319.892 326.849V330.013H323.232V331.758H319.892V342H317.874ZM329.58 346.984V345.289H336.732C337.854 345.289 338.526 344.716 338.526 343.719C338.526 342.797 337.854 342.249 336.732 342.249H332.795C330.901 342.249 330.427 340.679 331.1 339.334L331.898 337.714C330.677 336.941 329.929 335.695 329.929 334.2V333.976C329.929 331.509 332.047 329.764 335.063 329.764C335.262 329.764 335.436 329.764 335.611 329.789L336.832 327.272H338.85L337.305 330.138C339.075 330.761 340.196 332.157 340.196 333.926V334.2C340.196 336.742 338.078 338.536 335.063 338.536C334.514 338.536 333.991 338.486 333.517 338.362L332.919 339.533C332.695 339.981 332.645 340.629 333.493 340.629H337.006C339.05 340.629 340.42 341.676 340.42 343.744C340.42 345.663 339.025 346.984 336.907 346.984H329.58ZM335.063 336.966C336.907 336.966 338.227 335.82 338.227 334.2V334.001C338.227 332.481 336.907 331.409 335.063 331.409C333.194 331.409 331.898 332.505 331.898 334.051V334.2C331.898 335.82 333.194 336.966 335.063 336.966ZM348.249 342.249C344.686 342.249 342.244 339.732 342.244 336.069V335.82C342.244 332.356 344.486 329.764 347.851 329.764C351.29 329.764 353.408 332.481 352.934 336.617H344.262C344.486 338.835 346.006 340.405 348.349 340.405C349.595 340.405 350.567 340.106 351.29 339.458L352.436 340.704C351.514 341.701 349.994 342.249 348.249 342.249ZM347.875 331.509C345.857 331.509 344.561 332.879 344.287 334.973H351.015C350.99 332.78 349.695 331.509 347.875 331.509ZM360.976 342.249C357.562 342.249 355.02 339.707 355.02 336.069V335.845C355.02 332.281 357.562 329.764 360.976 329.764C364.415 329.764 366.932 332.281 366.932 335.795V336.069C366.932 339.707 364.415 342.249 360.976 342.249ZM360.976 340.455C363.318 340.455 364.938 338.661 364.938 336.069V335.795C364.938 333.303 363.318 331.559 360.976 331.559C358.658 331.559 357.014 333.328 357.014 335.845V336.069C357.014 338.661 358.658 340.455 360.976 340.455ZM369.884 342V330.013H371.802V331.907C372.724 330.288 374.294 329.764 375.615 329.764C377.36 329.764 378.705 330.512 379.378 332.107C380.4 330.313 382.169 329.764 383.515 329.764C386.131 329.764 387.901 331.434 387.901 334.873V342H385.932V335.122C385.932 332.655 384.761 331.608 383.041 331.608C381.247 331.608 379.901 332.854 379.901 335.122V342H377.908V335.122C377.908 332.655 376.761 331.608 375.042 331.608C373.248 331.608 371.877 332.854 371.877 335.122V342H369.884ZM396.702 342.249C393.139 342.249 390.696 339.732 390.696 336.069V335.82C390.696 332.356 392.939 329.764 396.303 329.764C399.742 329.764 401.861 332.481 401.387 336.617H392.715C392.939 338.835 394.459 340.405 396.802 340.405C398.048 340.405 399.02 340.106 399.742 339.458L400.889 340.704C399.967 341.701 398.447 342.249 396.702 342.249ZM396.328 331.509C394.31 331.509 393.014 332.879 392.74 334.973H399.468C399.443 332.78 398.148 331.509 396.328 331.509ZM408.235 342C406.591 342 404.946 341.128 404.946 338.81V331.758H402.753V330.013H404.946V327.048H406.94V330.013H410.08V331.758H406.94V338.935C406.94 339.707 407.513 340.281 408.26 340.281H410.08V342H408.235ZM412.763 342V330.013H414.707V331.932C415.305 330.412 416.551 329.964 418.022 329.964H419.043V331.957H417.872C415.928 331.957 414.782 332.904 414.782 334.898V342H412.763ZM422.299 327.372V324.481H424.492V327.372H422.299ZM422.374 342V331.758H420.056V330.013H424.393V342H422.374ZM433.452 342.249C429.889 342.249 427.322 339.732 427.322 336.144V335.845C427.322 332.256 429.914 329.764 433.452 329.764C435.197 329.764 436.692 330.437 437.689 331.608L436.443 332.854C435.695 332.057 434.673 331.633 433.452 331.633C431.06 331.633 429.316 333.303 429.316 335.845V336.144C429.316 338.686 431.085 340.38 433.477 340.38C434.673 340.38 435.695 340.006 436.493 339.184L437.714 340.405C436.742 341.576 435.197 342.249 433.452 342.249ZM449.817 342.249C446.976 342.249 445.207 340.829 445.207 338.711C445.207 336.667 446.951 334.997 450.041 334.997C451.337 334.997 452.359 335.297 453.106 335.82V334.25C453.106 332.456 452.184 331.583 450.315 331.583C449.069 331.583 447.599 332.082 446.552 333.054L445.605 331.633C446.752 330.437 448.546 329.764 450.39 329.764C453.181 329.764 455.1 331.259 455.1 334.225V338.063C455.1 339.383 455.1 340.679 455.175 342H453.355V340.804C452.683 341.751 451.511 342.249 449.817 342.249ZM450.191 340.729C451.985 340.729 453.106 339.932 453.106 338.661C453.106 337.415 452.01 336.617 450.191 336.617C448.371 336.617 447.225 337.415 447.225 338.661C447.225 339.932 448.396 340.729 450.191 340.729ZM458.71 342V330.013H460.653V331.932C461.625 330.263 463.345 329.764 464.616 329.764C467.282 329.764 469.151 331.509 469.151 334.948V342H467.133V335.247C467.133 332.68 465.862 331.608 464.092 331.608C462.248 331.608 460.728 332.879 460.728 335.272V342H458.71ZM477.537 342.249C474.248 342.249 471.905 339.757 471.905 336.069V335.845C471.905 332.256 474.298 329.764 477.537 329.764C479.307 329.764 480.777 330.587 481.699 331.957V323.808H483.718V342H481.898V339.832C480.951 341.352 479.406 342.249 477.537 342.249ZM477.811 340.455C480.129 340.455 481.824 338.711 481.824 336.019C481.824 333.328 480.129 331.559 477.811 331.559C475.569 331.559 473.924 333.253 473.924 335.845V336.069C473.924 338.735 475.569 340.455 477.811 340.455ZM493.267 342V330.013H495.186V331.907C496.108 330.288 497.678 329.764 498.998 329.764C500.743 329.764 502.088 330.512 502.761 332.107C503.783 330.313 505.552 329.764 506.898 329.764C509.515 329.764 511.284 331.434 511.284 334.873V342H509.315V335.122C509.315 332.655 508.144 331.608 506.425 331.608C504.63 331.608 503.285 332.854 503.285 335.122V342H501.291V335.122C501.291 332.655 500.145 331.608 498.425 331.608C496.631 331.608 495.26 332.854 495.26 335.122V342H493.267ZM520.035 342.249C516.621 342.249 514.08 339.707 514.08 336.069V335.845C514.08 332.281 516.621 329.764 520.035 329.764C523.474 329.764 525.991 332.281 525.991 335.795V336.069C525.991 339.707 523.474 342.249 520.035 342.249ZM520.035 340.455C522.378 340.455 523.998 338.661 523.998 336.069V335.795C523.998 333.303 522.378 331.559 520.035 331.559C517.718 331.559 516.073 333.328 516.073 335.845V336.069C516.073 338.661 517.718 340.455 520.035 340.455ZM528.943 342V330.013H530.887V331.932C531.859 330.263 533.578 329.764 534.849 329.764C537.516 329.764 539.385 331.509 539.385 334.948V342H537.366V335.247C537.366 332.68 536.095 331.608 534.326 331.608C532.482 331.608 530.962 332.879 530.962 335.272V342H528.943ZM548.095 342.249C544.681 342.249 542.139 339.707 542.139 336.069V335.845C542.139 332.281 544.681 329.764 548.095 329.764C551.534 329.764 554.051 332.281 554.051 335.795V336.069C554.051 339.707 551.534 342.249 548.095 342.249ZM548.095 340.455C550.437 340.455 552.057 338.661 552.057 336.069V335.795C552.057 333.303 550.437 331.559 548.095 331.559C545.777 331.559 544.133 333.328 544.133 335.845V336.069C544.133 338.661 545.777 340.455 548.095 340.455ZM560.268 342.224C558.524 342.224 556.879 341.626 555.907 340.754L556.804 339.358C557.702 340.131 558.997 340.629 560.268 340.629C561.763 340.629 562.785 339.882 562.785 338.785C562.785 335.944 556.356 337.813 556.356 333.353C556.356 331.259 558.075 329.764 560.717 329.764C562.237 329.764 563.608 330.263 564.604 330.985L563.707 332.381C562.86 331.733 561.813 331.359 560.692 331.359C559.247 331.359 558.275 332.107 558.275 333.203C558.275 335.994 564.779 334.2 564.779 338.686C564.779 340.779 562.91 342.224 560.268 342.224ZM567.637 346.984V330.013H569.531V332.082C570.478 330.661 571.998 329.764 573.818 329.764C577.057 329.764 579.449 332.256 579.449 335.845V336.069C579.449 339.757 577.082 342.249 573.818 342.249C572.048 342.249 570.578 341.427 569.656 340.056V346.984H567.637ZM573.518 340.455C575.761 340.455 577.431 338.735 577.431 336.069V335.845C577.431 333.253 575.761 331.559 573.518 331.559C571.226 331.559 569.531 333.328 569.531 336.019C569.531 338.711 571.226 340.455 573.518 340.455ZM586.098 342.249C583.257 342.249 581.488 340.829 581.488 338.711C581.488 336.667 583.232 334.997 586.322 334.997C587.618 334.997 588.64 335.297 589.387 335.82V334.25C589.387 332.456 588.465 331.583 586.596 331.583C585.35 331.583 583.88 332.082 582.834 333.054L581.887 331.633C583.033 330.437 584.827 329.764 586.671 329.764C589.462 329.764 591.381 331.259 591.381 334.225V338.063C591.381 339.383 591.381 340.679 591.456 342H589.637V340.804C588.964 341.751 587.793 342.249 586.098 342.249ZM586.472 340.729C588.266 340.729 589.387 339.932 589.387 338.661C589.387 337.415 588.291 336.617 586.472 336.617C584.653 336.617 583.506 337.415 583.506 338.661C583.506 339.932 584.678 340.729 586.472 340.729ZM600.324 342.249C596.76 342.249 594.194 339.732 594.194 336.144V335.845C594.194 332.256 596.785 329.764 600.324 329.764C602.068 329.764 603.563 330.437 604.56 331.608L603.314 332.854C602.567 332.057 601.545 331.633 600.324 331.633C597.932 331.633 596.187 333.303 596.187 335.845V336.144C596.187 338.686 597.956 340.38 600.349 340.38C601.545 340.38 602.567 340.006 603.364 339.184L604.585 340.405C603.613 341.576 602.068 342.249 600.324 342.249ZM612.051 342.249C608.487 342.249 606.045 339.732 606.045 336.069V335.82C606.045 332.356 608.288 329.764 611.652 329.764C615.091 329.764 617.209 332.481 616.736 336.617H608.064C608.288 338.835 609.808 340.405 612.151 340.405C613.397 340.405 614.368 340.106 615.091 339.458L616.237 340.704C615.315 341.701 613.795 342.249 612.051 342.249ZM611.677 331.509C609.659 331.509 608.363 332.879 608.089 334.973H614.817C614.792 332.78 613.496 331.509 611.677 331.509ZM624.453 342.249C621.164 342.249 618.821 339.757 618.821 336.069V335.845C618.821 332.256 621.214 329.764 624.453 329.764C626.223 329.764 627.693 330.587 628.615 331.957V323.808H630.634V342H628.814V339.832C627.867 341.352 626.322 342.249 624.453 342.249ZM624.728 340.455C627.045 340.455 628.74 338.711 628.74 336.019C628.74 333.328 627.045 331.559 624.728 331.559C622.485 331.559 620.84 333.253 620.84 335.845V336.069C620.84 338.735 622.485 340.455 624.728 340.455ZM633.843 342V339.259H636.535V342H633.843Z" fill="#2FBA78"/>
<rect width="63.6404" height="6" fill="#0B322C"/>
<rect x="63.3047" width="63.6404" height="6" fill="#0B322C"/>
<rect x="126.611" width="63.6404" height="6" fill="#FE7B3F"/>
<rect x="189.916" width="63.6404" height="6" fill="#2FBA78"/>
<rect x="253.223" width="63.6404" height="6" fill="#2FBA78"/>
<rect x="316.527" width="63.6404" height="6" fill="#2FBA78"/>
<rect x="379.832" width="63.6404" height="6" fill="#2FBA78"/>
<rect x="443.139" width="63.6404" height="6" fill="#2FBA78"/>
<rect x="506.443" width="63.6404" height="6" fill="#EFEFEF"/>
<rect x="569.748" width="63.6404" height="6" fill="#2453FF"/>
<rect x="633.055" width="63.6404" height="6" fill="#2453FF"/>
<rect x="696.359" width="63.6404" height="6" fill="#2453FF"/>
<path fill-rule="evenodd" clip-rule="evenodd" d="M388.588 471.057C387.084 470.505 386.371 470.521 384.788 470.555L384.788 470.555C384.522 470.561 384.232 470.568 383.91 470.572C383.076 470.583 382.673 470.573 382.205 470.561H382.205C381.8 470.551 381.347 470.54 380.524 470.54C379.976 470.54 379.773 473.148 381.758 473.689C381.892 473.726 382.028 473.76 382.164 473.795L382.164 473.795C382.909 473.986 383.665 474.179 384.217 474.74C384.507 475.032 384.67 475.474 384.001 475.474H379.076L378.984 475.474C378.155 475.475 377.376 475.475 376.741 474.941C375.8 474.152 375.333 473.081 374.864 472.004L374.784 471.82C374.268 470.636 373.711 469.471 373.057 468.355C371.756 466.136 370.037 464.129 367.729 462.902C364.849 461.369 359.96 460.61 356.089 463.558C352.01 466.668 352.885 472.49 356.452 475.338C357.861 476.463 359.698 476.935 361.504 476.829C365.032 476.625 367.634 474.045 366.988 470.868C366.773 469.804 366.148 468.799 365.207 468.251C364.538 467.863 363.744 467.723 362.968 467.722C362.135 467.72 361.249 467.891 360.65 468.466C359.941 469.148 359.826 470.35 360.392 471.153C360.47 471.263 360.56 471.369 360.65 471.475C360.923 471.796 361.195 472.116 361.13 472.55C361.071 472.943 360.745 473.234 360.356 473.319C359.694 473.465 359.088 473.092 358.643 472.635C357.495 471.462 357.135 469.596 357.767 468.087C358.592 466.11 360.887 465.024 363.042 465.094C365.819 465.187 368.438 467.005 369.576 469.52C370.716 472.038 370.374 475.126 368.805 477.404C365.316 482.463 356.702 481.865 352.701 477.599C350.191 474.923 348.826 472.325 349.018 467.489C349.152 464.071 351.139 460.705 353.673 458.337C357.8 454.476 363.236 451.837 368.767 450.698C372.127 450.01 375.595 449.848 379.005 450.186C382.012 450.483 385.002 451.03 387.892 451.918C389.326 452.361 390.737 452.888 392.103 453.51C392.289 453.594 392.484 453.68 392.684 453.769L392.684 453.769C393.779 454.251 395.03 454.803 395.823 455.604C395.823 454.689 395.803 453.726 395.785 452.827L395.785 452.826C395.769 452.04 395.755 451.303 395.755 450.691C395.755 450.19 396.285 449.851 396.74 450.065C397.373 450.358 398.288 450.783 399.34 451.273L399.341 451.273C401.536 452.294 404.33 453.594 406.419 454.542C410.561 456.418 410.853 460.849 410.998 464.777L410.998 464.78C411.001 464.866 411.005 464.956 410.966 465.032C410.856 465.258 410.349 465.244 410.037 465.235C409.976 465.233 409.923 465.232 409.881 465.232C409.749 465.234 409.598 465.234 409.439 465.235C409.004 465.237 408.506 465.24 408.144 465.255C407.155 465.299 406.192 465.28 405.204 465.232C403.375 465.144 401.609 464.335 400.423 463.351C400.307 463.254 399.924 463.146 399.744 463.331C399.557 463.522 399.622 463.822 399.723 463.924C400.401 464.604 401.137 465.043 401.993 465.483C403.081 466.036 404.267 466.177 405.469 466.246C406.756 466.322 408.053 466.303 409.339 466.172C409.406 466.166 409.469 466.159 409.53 466.153C410.44 466.058 410.622 466.039 409.63 466.771C408.7 467.457 407.621 467.95 406.527 468.315C404.958 468.844 403.3 469.107 401.646 469.153C400.643 469.179 399.64 469.127 398.645 469C398.432 468.973 398.22 468.942 398.007 468.91L398.007 468.91C397.706 468.866 397.406 468.821 397.104 468.791C397.033 468.784 396.962 468.776 396.891 468.768C396.539 468.728 396.18 468.687 395.832 468.76C395.453 468.842 395.103 469.047 394.863 469.353C394.536 469.776 394.423 470.941 394.612 471.446C394.978 472.423 395.781 472.992 396.628 473.493C396.88 473.642 397.154 473.763 397.424 473.883C398.137 474.2 398.82 474.503 398.99 475.256C399.039 475.472 397.086 475.478 396.865 475.474H394.266C394.266 475.474 392.853 475.508 392.304 475.309C392.292 475.306 392.282 475.302 392.272 475.297C392.266 475.294 392.26 475.291 392.253 475.288C391.956 475.129 391.826 474.737 391.726 474.437L391.724 474.43C391.579 474.006 391.323 473.582 391.015 473.142C390.428 472.312 389.526 471.402 388.588 471.057ZM401.888 460.457C401.255 457.786 403.674 455.385 406.368 456.011C407.738 456.33 408.826 457.409 409.149 458.769C409.783 461.441 407.362 463.845 404.669 463.217C403.298 462.898 402.208 461.818 401.888 460.457ZM406.245 459.412C406.637 459.01 407.28 459.01 407.67 459.412C408.11 459.847 408.056 460.597 407.513 460.955C407.181 461.174 406.737 461.175 406.404 460.955C405.858 460.597 405.807 459.847 406.245 459.412ZM405.511 462.348C407.034 462.348 408.266 461.124 408.266 459.612C408.266 458.102 407.034 456.878 405.511 456.878C403.988 456.878 402.756 458.102 402.756 459.612C402.756 461.124 403.988 462.348 405.511 462.348Z" fill="#30BA78"/>
</g>
<rect width="760" height="506" fill="#0B322C"/>
<path d="M175.037 285.39C210.519 285.39 234.856 265.147 234.856 234.214C234.856 176.897 155.931 197.822 155.931 165.98C155.931 154.38 165.939 146.646 180.723 146.646C192.323 146.646 201.193 151.423 210.519 161.203L230.989 140.733C219.844 127.996 201.876 119.808 180.723 119.808C146.606 119.808 124.088 138.686 124.088 168.936C124.088 224.434 201.876 205.328 201.876 238.991C201.876 250.363 192.323 258.551 176.402 258.551C163.664 258.551 152.974 253.547 140.237 241.038L120.449 260.826C133.186 275.61 150.7 285.39 175.037 285.39Z" fill="white"/>
<path d="M316.866 285.39C354.623 285.39 379.87 266.512 379.87 226.481V122.992H347.572V223.979C347.572 245.814 335.517 255.594 316.866 255.594C298.443 255.594 286.161 245.814 286.161 223.979V122.992H253.863V226.481C253.863 266.512 278.655 285.39 316.866 285.39Z" fill="white"/>
<path d="M452.556 285.39C488.038 285.39 512.375 265.147 512.375 234.214C512.375 176.897 433.451 197.822 433.451 165.98C433.451 154.38 443.458 146.646 458.243 146.646C469.842 146.646 478.713 151.423 488.038 161.203L508.509 140.733C497.364 127.996 479.395 119.808 458.243 119.808C424.125 119.808 401.608 138.686 401.608 168.936C401.608 224.434 479.395 205.328 479.395 238.991C479.395 250.363 469.842 258.551 453.921 258.551C441.184 258.551 430.494 253.547 417.757 241.038L397.969 260.826C410.706 275.61 428.219 285.39 452.556 285.39Z" fill="white"/>
<path d="M558.679 282.206H638.058V253.092H569.596C565.957 253.092 563.228 250.136 563.228 246.496V216.018H633.282V188.27H563.228V158.701C563.228 155.062 565.957 152.105 569.596 152.105H638.058V122.992H558.679C542.757 122.992 531.385 134.364 531.385 150.058V255.139C531.385 270.833 542.757 282.206 558.679 282.206Z" fill="white"/>
<path fill-rule="evenodd" clip-rule="evenodd" d="M124.557 342H122.389L129.017 324.556H131.584L138.213 342H136.02L134.251 337.24H126.351L124.557 342ZM130.313 326.674L127.024 335.421H133.578L130.313 326.674Z" fill="#2FBA78"/>
<path d="M146.113 326.998V330.013H143.92V331.758H146.113V342H148.131V331.758H151.471V330.013H148.131V326.849C148.131 326.076 148.705 325.528 149.452 325.528H151.471V323.808H149.477C147.459 323.808 146.113 325.054 146.113 326.998Z" fill="#2FBA78"/>
<path d="M153.764 342H155.782V334.898C155.782 332.904 156.929 331.957 158.872 331.957H160.044V329.964H159.022C157.552 329.964 156.281 330.412 155.707 331.932V330.013H153.764V342Z" fill="#2FBA78"/>
<path fill-rule="evenodd" clip-rule="evenodd" d="M165.5 327.372H163.307V324.481H165.5V327.372ZM165.401 342H163.382V331.758H161.064V330.013H165.401V342Z" fill="#2FBA78"/>
<path fill-rule="evenodd" clip-rule="evenodd" d="M178.534 340.704C177.612 341.701 176.092 342.249 174.348 342.249C170.784 342.249 168.342 339.732 168.342 336.069V335.82C168.342 332.356 170.585 329.764 173.949 329.764C177.388 329.764 179.506 332.481 179.032 336.617H170.36C170.585 338.835 172.105 340.405 174.447 340.405C175.693 340.405 176.665 340.106 177.388 339.458L178.534 340.704ZM173.974 331.509C171.955 331.509 170.659 332.879 170.385 334.973H177.114C177.089 332.78 175.818 331.509 173.974 331.509Z" fill="#2FBA78"/>
<path d="M181.922 342H183.94V335.272C183.94 332.879 185.461 331.608 187.305 331.608C189.074 331.608 190.345 332.68 190.345 335.247V342H192.363V334.948C192.363 331.509 190.494 329.764 187.828 329.764C186.557 329.764 184.838 330.263 183.866 331.907V330.013H181.922V342Z" fill="#2FBA78"/>
<path fill-rule="evenodd" clip-rule="evenodd" d="M205.124 339.807C204.177 341.352 202.632 342.249 200.763 342.249C197.473 342.249 195.131 339.757 195.131 336.069V335.845C195.131 332.256 197.523 329.764 200.763 329.764C202.532 329.764 204.002 330.612 204.924 331.957V323.808H206.943V342H205.124V339.807ZM197.149 335.845V336.069C197.149 338.735 198.794 340.455 201.037 340.455C203.354 340.455 205.049 338.711 205.049 336.019C205.049 333.328 203.354 331.559 201.037 331.559C198.794 331.559 197.149 333.253 197.149 335.845Z" fill="#2FBA78"/>
<path d="M213.895 342H215.141V340.281H213.995C213.248 340.281 212.674 339.732 212.674 338.96V323.808H208.463V325.528H210.656V338.935C210.656 340.804 211.952 342 213.895 342Z" fill="#2FBA78"/>
<path d="M215.564 346.984H217.857C220 346.984 220.797 345.489 221.346 344.118L227.077 330.013H224.859L221.246 339.658L217.458 330.013H215.24L220.174 342.125L219.302 344.043C219.028 344.716 218.654 345.265 217.957 345.265H215.564V346.984Z" fill="#2FBA78"/>
<path fill-rule="evenodd" clip-rule="evenodd" d="M246.39 336.069C246.39 339.757 244.023 342.249 240.758 342.249C238.914 342.249 237.369 341.352 236.422 339.882V342H234.578V323.808H236.597V331.932C237.519 330.587 238.989 329.764 240.758 329.764C243.998 329.764 246.39 332.256 246.39 335.845V336.069ZM240.459 331.559C238.167 331.559 236.472 333.328 236.472 336.019C236.472 338.711 238.167 340.455 240.459 340.455C242.702 340.455 244.372 338.735 244.372 336.069V335.845C244.372 333.253 242.702 331.559 240.459 331.559Z" fill="#2FBA78"/>
<path d="M252.546 342H253.792V340.281H252.646C251.898 340.281 251.325 339.732 251.325 338.96V323.808H247.113V325.528H249.306V338.935C249.306 340.804 250.602 342 252.546 342Z" fill="#2FBA78"/>
<path fill-rule="evenodd" clip-rule="evenodd" d="M265.229 340.704C264.307 341.701 262.787 342.249 261.043 342.249C257.479 342.249 255.037 339.732 255.037 336.069V335.82C255.037 332.356 257.28 329.764 260.644 329.764C264.083 329.764 266.201 332.481 265.728 336.617H257.056C257.28 338.835 258.8 340.405 261.143 340.405C262.389 340.405 263.36 340.106 264.083 339.458L265.229 340.704ZM260.669 331.509C258.651 331.509 257.355 332.879 257.081 334.973H263.809C263.784 332.78 262.513 331.509 260.669 331.509Z" fill="#2FBA78"/>
<path d="M268.619 342H270.638V335.272C270.638 332.879 272.158 331.608 274.002 331.608C275.771 331.608 277.042 332.68 277.042 335.247V342H279.061V334.948C279.061 331.509 277.192 329.764 274.525 329.764C273.254 329.764 271.535 330.263 270.563 331.907V330.013H268.619V342Z" fill="#2FBA78"/>
<path fill-rule="evenodd" clip-rule="evenodd" d="M291.819 339.807C290.872 341.352 289.327 342.249 287.458 342.249C284.169 342.249 281.826 339.757 281.826 336.069V335.845C281.826 332.256 284.218 329.764 287.458 329.764C289.227 329.764 290.698 330.612 291.62 331.957V323.808H293.638V342H291.819V339.807ZM283.845 335.845V336.069C283.845 338.735 285.489 340.455 287.732 340.455C290.05 340.455 291.744 338.711 291.744 336.019C291.744 333.328 290.05 331.559 287.732 331.559C285.489 331.559 283.845 333.253 283.845 335.845Z" fill="#2FBA78"/>
<path fill-rule="evenodd" clip-rule="evenodd" d="M314.298 336.069C314.298 339.707 311.782 342.249 308.343 342.249C304.929 342.249 302.387 339.707 302.387 336.069V335.845C302.387 332.281 304.929 329.764 308.343 329.764C311.782 329.764 314.298 332.281 314.298 335.795V336.069ZM304.38 335.845V336.069C304.38 338.661 306.025 340.455 308.343 340.455C310.685 340.455 312.305 338.661 312.305 336.069V335.795C312.305 333.303 310.685 331.559 308.343 331.559C306.025 331.559 304.38 333.328 304.38 335.845Z" fill="#2FBA78"/>
<path d="M317.861 326.998V330.013H315.668V331.758H317.861V342H319.879V331.758H323.219V330.013H319.879V326.849C319.879 326.076 320.453 325.528 321.2 325.528H323.219V323.808H321.225C319.207 323.808 317.861 325.054 317.861 326.998Z" fill="#2FBA78"/>
<path fill-rule="evenodd" clip-rule="evenodd" d="M336.901 346.984H329.574V345.289H336.726C337.848 345.289 338.52 344.716 338.52 343.719C338.52 342.797 337.848 342.249 336.726 342.249H332.689C330.795 342.249 330.421 340.679 331.094 339.334L331.892 337.714C330.671 336.941 329.923 335.695 329.923 334.2V333.976C329.923 331.509 332.041 329.764 335.057 329.764C335.231 329.764 335.43 329.764 335.605 329.789L336.826 327.272H338.844L337.299 330.138C339.069 330.761 340.19 332.157 340.19 333.926V334.2C340.19 336.742 338.072 338.536 335.057 338.536C334.508 338.536 333.985 338.486 333.512 338.362L332.913 339.533C332.689 339.981 332.639 340.629 333.487 340.629H337C339.044 340.629 340.414 341.676 340.414 343.744C340.414 345.663 339.019 346.984 336.901 346.984ZM331.892 334.051V334.2C331.892 335.82 333.188 336.966 335.057 336.966C336.901 336.966 338.221 335.82 338.221 334.2V334.001C338.221 332.481 336.901 331.409 335.057 331.409C333.188 331.409 331.892 332.505 331.892 334.051Z" fill="#2FBA78"/>
<path fill-rule="evenodd" clip-rule="evenodd" d="M352.425 340.704C351.503 341.701 349.983 342.249 348.238 342.249C344.675 342.249 342.232 339.732 342.232 336.069V335.82C342.232 332.356 344.475 329.764 347.839 329.764C351.278 329.764 353.397 332.481 352.923 336.617H344.251C344.475 338.835 345.995 340.405 348.338 340.405C349.584 340.405 350.556 340.106 351.278 339.458L352.425 340.704ZM347.864 331.509C345.846 331.509 344.55 332.879 344.276 334.973H351.004C350.979 332.78 349.708 331.509 347.864 331.509Z" fill="#2FBA78"/>
<path fill-rule="evenodd" clip-rule="evenodd" d="M366.929 336.069C366.929 339.707 364.412 342.249 360.973 342.249C357.559 342.249 355.018 339.707 355.018 336.069V335.845C355.018 332.281 357.559 329.764 360.973 329.764C364.412 329.764 366.929 332.281 366.929 335.795V336.069ZM357.011 335.845V336.069C357.011 338.661 358.656 340.455 360.973 340.455C363.316 340.455 364.936 338.661 364.936 336.069V335.795C364.936 333.303 363.316 331.559 360.973 331.559C358.656 331.559 357.011 333.328 357.011 335.845Z" fill="#2FBA78"/>
<path d="M369.869 342H371.863V335.122C371.863 332.854 373.233 331.608 375.028 331.608C376.747 331.608 377.893 332.655 377.893 335.122V342H379.887V335.122C379.887 332.854 381.233 331.608 383.027 331.608C384.746 331.608 385.918 332.655 385.918 335.122V342H387.886V334.873C387.886 331.434 386.117 329.764 383.5 329.764C382.18 329.764 380.385 330.288 379.364 332.082C378.691 330.512 377.345 329.764 375.601 329.764C374.28 329.764 372.71 330.288 371.788 331.907V330.013H369.869V342Z" fill="#2FBA78"/>
<path fill-rule="evenodd" clip-rule="evenodd" d="M400.87 340.704C399.948 341.701 398.428 342.249 396.683 342.249C393.12 342.249 390.678 339.732 390.678 336.069V335.82C390.678 332.356 392.921 329.764 396.285 329.764C399.724 329.764 401.842 332.481 401.368 336.617H392.696C392.921 338.835 394.441 340.405 396.783 340.405C398.029 340.405 399.001 340.106 399.724 339.458L400.87 340.704ZM396.31 331.509C394.291 331.509 392.995 332.879 392.721 334.973H399.45C399.425 332.78 398.154 331.509 396.31 331.509Z" fill="#2FBA78"/>
<path d="M408.221 342H410.065V340.281H408.246C407.498 340.281 406.925 339.707 406.925 338.935V331.758H410.065V330.013H406.925V327.048H404.931V330.013H402.738V331.758H404.931V338.81C404.931 341.128 406.576 342 408.221 342Z" fill="#2FBA78"/>
<path d="M412.756 342H414.774V334.898C414.774 332.904 415.921 331.957 417.864 331.957H419.036V329.964H418.014C416.544 329.964 415.273 330.412 414.7 331.932V330.013H412.756V342Z" fill="#2FBA78"/>
<path fill-rule="evenodd" clip-rule="evenodd" d="M424.494 327.372H422.301V324.481H424.494V327.372ZM424.395 342H422.376V331.758H420.059V330.013H424.395V342Z" fill="#2FBA78"/>
<path d="M433.464 342.249C435.209 342.249 436.754 341.576 437.726 340.405L436.505 339.184C435.707 340.006 434.685 340.38 433.489 340.38C431.097 340.38 429.328 338.686 429.328 336.144V335.845C429.328 333.303 431.072 331.633 433.464 331.633C434.685 331.633 435.707 332.057 436.455 332.854L437.701 331.608C436.704 330.437 435.209 329.764 433.464 329.764C429.926 329.764 427.334 332.256 427.334 335.845V336.144C427.334 339.732 429.901 342.249 433.464 342.249Z" fill="#2FBA78"/>
<path fill-rule="evenodd" clip-rule="evenodd" d="M455.171 342H453.352V340.804C452.679 341.751 451.508 342.249 449.813 342.249C446.972 342.249 445.203 340.829 445.203 338.711C445.203 336.667 446.948 334.997 450.038 334.997C451.333 334.997 452.355 335.297 453.103 335.82V334.25C453.103 332.456 452.181 331.583 450.312 331.583C449.066 331.583 447.595 332.082 446.549 333.054L445.602 331.633C446.748 330.437 448.542 329.764 450.386 329.764C453.178 329.764 455.096 331.259 455.096 334.225V338.063C455.096 339.383 455.096 340.679 455.171 342ZM450.187 336.617C448.368 336.617 447.222 337.415 447.222 338.661C447.222 339.932 448.393 340.729 450.187 340.729C451.981 340.729 453.103 339.932 453.103 338.661C453.103 337.415 452.006 336.617 450.187 336.617Z" fill="#2FBA78"/>
<path d="M458.709 342H460.728V335.272C460.728 332.879 462.248 331.608 464.092 331.608C465.861 331.608 467.132 332.68 467.132 335.247V342H469.15V334.948C469.15 331.509 467.281 329.764 464.615 329.764C463.344 329.764 461.625 330.263 460.653 331.907V330.013H458.709V342Z" fill="#2FBA78"/>
<path fill-rule="evenodd" clip-rule="evenodd" d="M481.909 339.807C480.962 341.352 479.417 342.249 477.548 342.249C474.258 342.249 471.916 339.757 471.916 336.069V335.845C471.916 332.256 474.308 329.764 477.548 329.764C479.317 329.764 480.788 330.612 481.71 331.957V323.808H483.728V342H481.909V339.807ZM473.935 335.845V336.069C473.935 338.735 475.579 340.455 477.822 340.455C480.14 340.455 481.834 338.711 481.834 336.019C481.834 333.328 480.14 331.559 477.822 331.559C475.579 331.559 473.935 333.253 473.935 335.845Z" fill="#2FBA78"/>
<path d="M493.273 342H495.267V335.122C495.267 332.854 496.638 331.608 498.432 331.608C500.151 331.608 501.298 332.655 501.298 335.122V342H503.291V335.122C503.291 332.854 504.637 331.608 506.431 331.608C508.151 331.608 509.322 332.655 509.322 335.122V342H511.291V334.873C511.291 331.434 509.521 329.764 506.905 329.764C505.584 329.764 503.79 330.288 502.768 332.082C502.095 330.512 500.749 329.764 499.005 329.764C497.684 329.764 496.114 330.288 495.192 331.907V330.013H493.273V342Z" fill="#2FBA78"/>
<path fill-rule="evenodd" clip-rule="evenodd" d="M525.994 336.069C525.994 339.707 523.477 342.249 520.038 342.249C516.624 342.249 514.082 339.707 514.082 336.069V335.845C514.082 332.281 516.624 329.764 520.038 329.764C523.477 329.764 525.994 332.281 525.994 335.795V336.069ZM516.076 335.845V336.069C516.076 338.661 517.72 340.455 520.038 340.455C522.38 340.455 524 338.661 524 336.069V335.795C524 333.303 522.38 331.559 520.038 331.559C517.72 331.559 516.076 333.328 516.076 335.845Z" fill="#2FBA78"/>
<path d="M528.934 342H530.952V335.272C530.952 332.879 532.472 331.608 534.316 331.608C536.086 331.608 537.357 332.68 537.357 335.247V342H539.375V334.948C539.375 331.509 537.506 329.764 534.84 329.764C533.569 329.764 531.849 330.263 530.877 331.907V330.013H528.934V342Z" fill="#2FBA78"/>
<path fill-rule="evenodd" clip-rule="evenodd" d="M554.052 336.069C554.052 339.707 551.535 342.249 548.097 342.249C544.682 342.249 542.141 339.707 542.141 336.069V335.845C542.141 332.281 544.682 329.764 548.097 329.764C551.535 329.764 554.052 332.281 554.052 335.795V336.069ZM544.134 335.845V336.069C544.134 338.661 545.779 340.455 548.097 340.455C550.439 340.455 552.059 338.661 552.059 336.069V335.795C552.059 333.303 550.439 331.559 548.097 331.559C545.779 331.559 544.134 333.328 544.134 335.845Z" fill="#2FBA78"/>
<path d="M560.257 342.224C562.899 342.224 564.768 340.779 564.768 338.686C564.768 334.2 558.264 335.994 558.264 333.203C558.264 332.107 559.236 331.359 560.681 331.359C561.803 331.359 562.849 331.733 563.696 332.381L564.594 330.985C563.597 330.263 562.226 329.764 560.706 329.764C558.065 329.764 556.345 331.259 556.345 333.353C556.345 337.813 562.774 335.944 562.774 338.785C562.774 339.882 561.753 340.629 560.257 340.629C558.987 340.629 557.691 340.131 556.794 339.358L555.896 340.754C556.868 341.626 558.513 342.224 560.257 342.224Z" fill="#2FBA78"/>
<path fill-rule="evenodd" clip-rule="evenodd" d="M569.653 346.984H567.635V330.013H569.529V332.082C570.476 330.661 571.996 329.764 573.815 329.764C577.055 329.764 579.447 332.256 579.447 335.845V336.069C579.447 339.757 577.079 342.249 573.815 342.249C572.046 342.249 570.575 341.402 569.653 340.056V346.984ZM573.516 331.559C571.223 331.559 569.529 333.328 569.529 336.019C569.529 338.711 571.223 340.455 573.516 340.455C575.759 340.455 577.428 338.735 577.428 336.069V335.845C577.428 333.253 575.759 331.559 573.516 331.559Z" fill="#2FBA78"/>
<path fill-rule="evenodd" clip-rule="evenodd" d="M591.458 342H589.639V340.804C588.966 341.751 587.795 342.249 586.1 342.249C583.26 342.249 581.49 340.829 581.49 338.711C581.49 336.667 583.235 334.997 586.325 334.997C587.621 334.997 588.642 335.297 589.39 335.82V334.25C589.39 332.456 588.468 331.583 586.599 331.583C585.353 331.583 583.883 332.082 582.836 333.054L581.889 331.633C583.035 330.437 584.83 329.764 586.674 329.764C589.465 329.764 591.383 331.259 591.383 334.225V338.063C591.383 339.383 591.383 340.679 591.458 342ZM586.474 336.617C584.655 336.617 583.509 337.415 583.509 338.661C583.509 339.932 584.68 340.729 586.474 340.729C588.268 340.729 589.39 339.932 589.39 338.661C589.39 337.415 588.293 336.617 586.474 336.617Z" fill="#2FBA78"/>
<path d="M600.33 342.249C602.074 342.249 603.619 341.576 604.591 340.405L603.37 339.184C602.572 340.006 601.551 340.38 600.354 340.38C597.962 340.38 596.193 338.686 596.193 336.144V335.845C596.193 333.303 597.937 331.633 600.33 331.633C601.551 331.633 602.572 332.057 603.32 332.854L604.566 331.608C603.569 330.437 602.074 329.764 600.33 329.764C596.791 329.764 594.199 332.256 594.199 335.845V336.144C594.199 339.732 596.766 342.249 600.33 342.249Z" fill="#2FBA78"/>
<path fill-rule="evenodd" clip-rule="evenodd" d="M616.227 340.704C615.305 341.701 613.785 342.249 612.041 342.249C608.477 342.249 606.035 339.732 606.035 336.069V335.82C606.035 332.356 608.278 329.764 611.642 329.764C615.081 329.764 617.199 332.481 616.726 336.617H608.054C608.278 338.835 609.798 340.405 612.141 340.405C613.387 340.405 614.358 340.106 615.081 339.458L616.227 340.704ZM611.667 331.509C609.649 331.509 608.353 332.879 608.079 334.973H614.807C614.782 332.78 613.511 331.509 611.667 331.509Z" fill="#2FBA78"/>
<path fill-rule="evenodd" clip-rule="evenodd" d="M628.813 339.807C627.866 341.352 626.321 342.249 624.452 342.249C621.163 342.249 618.82 339.757 618.82 336.069V335.845C618.82 332.256 621.213 329.764 624.452 329.764C626.222 329.764 627.692 330.612 628.614 331.957V323.808H630.632V342H628.813V339.807ZM620.839 335.845V336.069C620.839 338.735 622.484 340.455 624.726 340.455C627.044 340.455 628.738 338.711 628.738 336.019C628.738 333.328 627.044 331.559 624.726 331.559C622.484 331.559 620.839 333.253 620.839 335.845Z" fill="#2FBA78"/>
<path d="M633.848 342H636.539V339.259H633.848V342Z" fill="#2FBA78"/>
<rect width="63.6404" height="6" fill="#0B322C"/>
<rect x="63.3047" width="63.6404" height="6" fill="#0B322C"/>
<rect x="126.611" width="63.6404" height="6" fill="#FE7B3F"/>
<rect x="189.916" width="63.6404" height="6" fill="#2FBA78"/>
<rect x="253.223" width="63.6404" height="6" fill="#2FBA78"/>
<rect x="316.527" width="63.6404" height="6" fill="#2FBA78"/>
<rect x="379.832" width="63.6404" height="6" fill="#2FBA78"/>
<rect x="443.139" width="63.6404" height="6" fill="#2FBA78"/>
<rect x="506.443" width="63.6404" height="6" fill="#EFEFEF"/>
<rect x="569.748" width="63.6404" height="6" fill="#2453FF"/>
<rect x="633.055" width="63.6404" height="6" fill="#2453FF"/>
<rect x="696.359" width="63.6404" height="6" fill="#2453FF"/>
<path fill-rule="evenodd" clip-rule="evenodd" d="M388.588 471.057C387.084 470.505 386.371 470.521 384.788 470.555L384.788 470.555C384.522 470.561 384.232 470.568 383.91 470.572C383.076 470.583 382.673 470.573 382.205 470.561H382.205C381.8 470.551 381.347 470.54 380.524 470.54C379.976 470.54 379.773 473.148 381.758 473.689C381.892 473.726 382.028 473.76 382.164 473.795L382.164 473.795C382.909 473.986 383.665 474.179 384.217 474.74C384.507 475.032 384.67 475.474 384.001 475.474H379.076L378.984 475.474C378.155 475.475 377.376 475.475 376.741 474.941C375.8 474.152 375.333 473.081 374.864 472.004L374.784 471.82C374.268 470.636 373.711 469.471 373.057 468.355C371.756 466.136 370.037 464.129 367.729 462.902C364.849 461.369 359.96 460.61 356.089 463.558C352.01 466.668 352.885 472.49 356.452 475.338C357.861 476.463 359.698 476.935 361.504 476.829C365.032 476.625 367.634 474.045 366.988 470.868C366.773 469.804 366.148 468.799 365.207 468.251C364.538 467.863 363.744 467.723 362.968 467.722C362.135 467.72 361.249 467.891 360.65 468.466C359.941 469.148 359.826 470.35 360.392 471.153C360.47 471.263 360.56 471.369 360.65 471.475C360.923 471.796 361.195 472.116 361.13 472.55C361.071 472.943 360.745 473.234 360.356 473.319C359.694 473.465 359.088 473.092 358.643 472.635C357.495 471.462 357.135 469.596 357.767 468.087C358.592 466.11 360.887 465.024 363.042 465.094C365.819 465.187 368.438 467.005 369.576 469.52C370.716 472.038 370.374 475.126 368.805 477.404C365.316 482.463 356.702 481.865 352.701 477.599C350.191 474.923 348.826 472.325 349.018 467.489C349.152 464.071 351.139 460.705 353.673 458.337C357.8 454.476 363.236 451.837 368.767 450.698C372.127 450.01 375.595 449.848 379.005 450.186C382.012 450.483 385.002 451.03 387.892 451.918C389.326 452.361 390.737 452.888 392.103 453.51C392.289 453.594 392.484 453.68 392.684 453.769L392.684 453.769C393.779 454.251 395.03 454.803 395.823 455.604C395.823 454.689 395.803 453.726 395.785 452.827L395.785 452.826C395.769 452.04 395.755 451.303 395.755 450.691C395.755 450.19 396.285 449.851 396.74 450.065C397.373 450.358 398.288 450.783 399.34 451.273L399.341 451.273C401.536 452.294 404.33 453.594 406.419 454.542C410.561 456.418 410.853 460.849 410.998 464.777L410.998 464.78C411.001 464.866 411.005 464.956 410.966 465.032C410.856 465.258 410.349 465.244 410.037 465.235C409.976 465.233 409.923 465.232 409.881 465.232C409.749 465.234 409.598 465.234 409.439 465.235C409.004 465.237 408.506 465.24 408.144 465.255C407.155 465.299 406.192 465.28 405.204 465.232C403.375 465.144 401.609 464.335 400.423 463.351C400.307 463.254 399.924 463.146 399.744 463.331C399.557 463.522 399.622 463.822 399.723 463.924C400.401 464.604 401.137 465.043 401.993 465.483C403.081 466.036 404.267 466.177 405.469 466.246C406.756 466.322 408.053 466.303 409.339 466.172C409.406 466.166 409.469 466.159 409.53 466.153C410.44 466.058 410.622 466.039 409.63 466.771C408.7 467.457 407.621 467.95 406.527 468.315C404.958 468.844 403.3 469.107 401.646 469.153C400.643 469.179 399.64 469.127 398.645 469C398.432 468.973 398.22 468.942 398.007 468.91L398.007 468.91C397.706 468.866 397.406 468.821 397.104 468.791C397.033 468.784 396.962 468.776 396.891 468.768C396.539 468.728 396.18 468.687 395.832 468.76C395.453 468.842 395.103 469.047 394.863 469.353C394.536 469.776 394.423 470.941 394.612 471.446C394.978 472.423 395.781 472.992 396.628 473.493C396.88 473.642 397.154 473.763 397.424 473.883C398.137 474.2 398.82 474.503 398.99 475.256C399.039 475.472 397.086 475.478 396.865 475.474H394.266C394.266 475.474 392.853 475.508 392.304 475.309C392.292 475.306 392.282 475.302 392.272 475.297C392.266 475.294 392.26 475.291 392.253 475.288C391.956 475.129 391.826 474.737 391.726 474.437L391.724 474.43C391.579 474.006 391.323 473.582 391.015 473.142C390.428 472.312 389.526 471.402 388.588 471.057ZM401.888 460.457C401.255 457.786 403.674 455.385 406.368 456.011C407.738 456.33 408.826 457.409 409.149 458.769C409.783 461.441 407.362 463.845 404.669 463.217C403.298 462.898 402.208 461.818 401.888 460.457ZM406.245 459.412C406.637 459.01 407.28 459.01 407.67 459.412C408.11 459.847 408.056 460.597 407.513 460.955C407.181 461.174 406.737 461.175 406.404 460.955C405.858 460.597 405.807 459.847 406.245 459.412ZM405.511 462.348C407.034 462.348 408.266 461.124 408.266 459.612C408.266 458.102 407.034 456.878 405.511 456.878C403.988 456.878 402.756 458.102 402.756 459.612C402.756 461.124 403.988 462.348 405.511 462.348Z" fill="#30BA78"/>
</g>
<defs>
<clipPath id="clip0_3_414">
<rect width="760" height="506" fill="white"/>
</clipPath>
<clipPath id="clip1_3_414">
<rect width="760" height="506" fill="white"/>
</clipPath>
</defs>
</svg>
